<?xml version="1.0" standalone="no"?>
<!DOCTYPE svg PUBLIC "-//W3C//DTD SVG 1.1//EN" "http://www.w3.org/Graphics/SVG/1.1/DTD/svg11.dtd" >
<svg>
<metadata>
Created by FontForge 20120731 at Mon Jan 25 00:40:59 2016
 By root
Copyright 1994 Bay Animation Inc. All Rights Reserved.
</metadata>
<defs>
<font id="JotsItalic" horiz-adv-x="512" >
  <font-face 
    font-family="Jots"
    font-weight="400"
    font-style="italic"
    font-stretch="normal"
    units-per-em="1000"
    panose-1="0 0 4 0 0 0 0 0 0 0"
    ascent="800"
    descent="-200"
    x-height="449"
    cap-height="744"
    bbox="-254 -286 1323 1219"
    underline-thickness="10"
    underline-position="-60"
    slope="-11"
    unicode-range="U+0020-2122"
  />
<missing-glyph horiz-adv-x="500" 
d="M63 0v1219h375v-1219h-375zM125 63h250v1094h-250v-1094z" />
    <glyph glyph-name=".notdef" horiz-adv-x="500" 
d="M63 0v1219h375v-1219h-375zM125 63h250v1094h-250v-1094z" />
    <glyph glyph-name="glyph1" horiz-adv-x="0" 
 />
    <glyph glyph-name="glyph2" horiz-adv-x="256" 
 />
    <glyph glyph-name="space" unicode=" " horiz-adv-x="256" 
 />
    <glyph glyph-name="exclam" unicode="!" horiz-adv-x="278" 
d="M460 676q0 -17 -20 -50l-234 -387q-23 -38 -44 -38q-42 0 -42 26q0 11 14 41l190 403q14 29 19 36q14 17 36 17q24 0 50 -12q31 -15 31 -36zM135 79q0 -34 -26.5 -61t-61.5 -27q-50 0 -50 46q0 39 25.5 64t64.5 25q48 0 48 -47z" />
    <glyph glyph-name="quotedbl" unicode="&#x22;" horiz-adv-x="305" 
d="M411 687l-57 -267h-78l57 267h78zM265 687l-57 -267h-78l57 267h78z" />
    <glyph glyph-name="numbersign" unicode="#" horiz-adv-x="746" 
d="M817 490l-45 -82h-139l-69 -121h147l-46 -82h-145l-119 -208h-91l119 208h-119l-120 -208h-90l119 208h-142l46 82l141 1l68 120h-149l46 82h150l118 209h90l-117 -209h118l119 209h90l-118 -209h138zM544 408h-121l-70 -122h122z" />
    <glyph glyph-name="dollar" unicode="$" 
d="M600 635q0 -18 -11 -38q-13 -24 -29 -25q-21 14 -42 29t-47 19l-104 -202q51 -41 69 -76q20 -38 20 -100q-2 -8 -4 -15q-24 -107 -108 -165q-78 -55 -192 -55l-48 -99q-11 -23 -19 -27t-36 -4q-9 0 -11 10q2 14 27 59q16 31 32 61q-104 0 -104 52q0 17 13 35.5t29 20.5
q35 -11 105 -26l130 255q-67 60 -67 127q0 94 80 163q77 66 172 66q15 32 37 66q3 3 40 3q4 0 8 -2l2 -5q-4 -13 -32 -62q90 -27 90 -65zM413 618q-44 0 -78.5 -32t-34.5 -76q0 -28 26 -57zM357 235q0 40 -45 78l-115 -222q63 0 111.5 41t48.5 103z" />
    <glyph glyph-name="percent" unicode="%" horiz-adv-x="907" 
d="M914 365q0 -116 -78 -238q-87 -136 -196 -136q-96 0 -96 103q0 75 44 146q34 56 105 121q83 76 131 76q38 0 38 -31q-30 -21 -87 -66q-55 -49 -98 -117q-49 -79 -49 -140q0 -35 30 -35q48 0 96 81q40 66 51 125q5 26 12 77q3 22 27 37t47 15t23 -18zM891 680v-3
q-1 -2 -1 -3q-1 -6 -92 -94l-110 -108q-175 -180 -296 -318q-54 -65 -147 -164q-1 0 -1 -1h-2q-11 0 -27 18t-16 30q0 33 542 575q-95 -31 -161 -31q-53 0 -87 11q-2 -10 -6 -31q-36 -138 -105 -218q-78 -90 -161 -90q-96 0 -96 106q0 87 68 179q60 80 144 133q46 29 69 29
q37 0 37 -32q-30 -22 -89 -68q-52 -45 -95 -116q-49 -81 -49 -139q0 -34 29 -34q50 0 100 83q42 71 50 131q2 18 9 66q3 22 32.5 46.5t52.5 24.5q-2 0 5 -1q6 -4 8 -6q33 -27 92 -27q48 0 110.5 15.5t102.5 39.5q19 12 57 33q11 0 22 -12.5t11 -23.5z" />
    <glyph glyph-name="ampersand" unicode="&#x26;" horiz-adv-x="743" 
d="M767 293q0 -10 -9 -19q-12 -20 -25 -37.5t-38 -17.5h-79q-77 -105 -180 -165q-111 -64 -235 -64q-177 0 -177 148q0 -5 4 23q23 95 106 159q75 56 179 75q-39 23 -39 75q0 77 76 157q69 72 149 100q49 17 105 17q82 0 82 -53q0 -29 -33 -62q-25 20 -61 20q-67 0 -136 -61
t-69 -127q0 -29 30 -41.5t30 -22.5q0 -16 -14.5 -34t-30.5 -18h-13q-78 0 -151 -57q-78 -61 -78 -137q0 -67 92 -67q73 0 143 37.5t112 97.5q-92 0 -99 2l-5 7q2 11 22 40t27 30q16 4 25 4h276q14 0 14 -9z" />
    <glyph glyph-name="quotesingle" unicode="'" horiz-adv-x="158" 
d="M265 687l-57 -267h-78l57 267h78z" />
    <glyph glyph-name="parenleft" unicode="(" horiz-adv-x="404" 
d="M614 705q0 -8 -2 -19q-3 -16 -72 -56q-146 -85 -250 -224.5t-139 -302.5q-11 -51 -11 -94q0 -65 18 -118t18 -61q0 -16 -22.5 -32.5t-38.5 -16.5q-28 0 -48 84q-15 64 -15 109q0 213 129 415q121 191 312 308q77 47 99 47t22 -39z" />
    <glyph glyph-name="parenright" unicode=")" horiz-adv-x="404" 
d="M389 553q0 -215 -128 -417q-120 -188 -314 -308q-76 -47 -98 -47t-22 42q0 7 2 23q3 12 73 52q78 45 121 82q116 100 193 242q85 156 85 297q0 62 -17.5 116.5t-17.5 67.5q0 11 23.5 26t35.5 15q30 0 50 -82q14 -61 14 -109z" />
    <glyph glyph-name="asterisk" unicode="*" horiz-adv-x="382" 
d="M556 618q0 -30 -42 -39l-93 -21l32 -46q23 -36 23 -54q0 -9 -19 -22.5t-29 -13.5q-14 0 -24 25l-31 80l-65 -80q-20 -25 -34 -25q-13 0 -23 11.5t-10 24.5q5 11 23 29l74 71l-85 21q-29 7 -29 29q0 12 13.5 27.5t25.5 15.5q-2 0 101 -44l12 93q6 44 45 44q26 0 26 -22
q0 -18 -12 -58q-10 -29 -19 -57q29 11 59 23q55 21 59 21q22 0 22 -33z" />
    <glyph glyph-name="plus" unicode="+" horiz-adv-x="808" 
d="M759 332l-17 -80h-243l-55 -252h-80l54 252h-244l17 80h245l52 252h80l-53 -252h244z" />
    <glyph glyph-name="comma" unicode="," horiz-adv-x="256" 
d="M123 123q0 -22 -61 -97.5t-81 -75.5q-21 0 -21 16q0 4 9 18q34 52 42 97q7 38 28 45q34 12 67 16q17 2 17 -19z" />
    <glyph glyph-name="hyphen" unicode="-" horiz-adv-x="290" 
d="M272 255q0 -17 -15 -42q-17 -29 -36 -29h-150q-20 0 -20 14q0 16 16.5 44.5t33.5 28.5h151q20 0 20 -16z" />
    <glyph glyph-name="hyphen" unicode="&#x2010;" horiz-adv-x="290" 
d="M272 255q0 -17 -15 -42q-17 -29 -36 -29h-150q-20 0 -20 14q0 16 16.5 44.5t33.5 28.5h151q20 0 20 -16z" />
    <glyph glyph-name="period" unicode="." horiz-adv-x="256" 
d="M112 79q0 -35 -26.5 -61.5t-61.5 -26.5q-50 0 -50 46q0 37 27 63t64 26q47 0 47 -47z" />
    <glyph glyph-name="slash" unicode="/" horiz-adv-x="345" 
d="M600 735q-7 -19 -17 -31l-578 -749q-27 -35 -39 -40.5t-58 -5.5q-2 1 -5 1.5t-5 1.5l-1 6q4 12 18 31l577 750q26 34 38.5 39.5t58.5 5.5q7 0 10 -3z" />
    <glyph glyph-name="zero" unicode="0" 
d="M586 601q0 -44 -13 -103q-47 -212 -157 -358q-113 -149 -220 -149q-67 0 -102 46q-31 42 -31 111q0 133 101 293q93 148 212 231q64 45 99 45q58 0 58 -50q0 -7 -49.5 -40t-88.5 -69q-83 -78 -152 -193q-79 -133 -79 -228q0 -55 48 -55q72 0 149 134q64 110 82 202
q1 7 19 129q4 29 37 54.5t63 25.5q24 0 24 -26z" />
    <glyph glyph-name="one" unicode="1" 
d="M566 684q-114 -232 -161 -330q-88 -184 -154 -332q-8 -17 -24 -22q-8 -2 -34 -2q-53 0 -53 25q0 22 59 137l213 416q-97 -65 -127 -65q-12 0 -20.5 15.5t-8.5 28.5q0 5 1 8q3 16 124.5 84.5t146.5 68.5q38 0 38 -32z" />
    <glyph glyph-name="two" unicode="2" 
d="M574 574q0 -22 -5 -43q-20 -84 -177 -231q-70 -65 -229 -193l195 -2q44 0 44 -23q0 -28 -17 -53q-19 -29 -46 -29h-370q-17 0 -21 5l-1 7v6q1 3 1 5q5 25 137 122q171 128 239 192q127 120 127 206q0 74 -82 74q-13 0 -37 -6t-33 -6q-27 0 -27 22q0 55 38 75q27 15 87 15
q75 0 122 -33q55 -38 55 -110z" />
    <glyph glyph-name="three" unicode="3" 
d="M554 589q0 -120 -139 -185l-2 -7q64 -38 64 -105q0 -119 -110 -212q-106 -89 -227 -89q-50 0 -89 12q-56 17 -56 54q0 22 7 44q9 29 26 31q76 -38 115 -38q83 0 147 50q68 54 68 136q0 35 -28 49q-15 7 -55 12q-32 4 -36 13q-4 5 -4 16q0 43 45 52q168 35 168 137
q0 33 -28 51q-24 15 -58 15q-30 0 -54 -4q-1 8 -1 23q0 73 93 73q61 0 105 -32q49 -37 49 -96z" />
    <glyph glyph-name="four" unicode="4" 
d="M540 482q0 -4 -71 -115q-77 -121 -86 -137q10 0 43 2q27 2 43 2q15 0 15 -14q0 -16 -9 -37q-17 -41 -33 -50q-12 -7 -57 -7h-61l-83 -152q-12 -23 -19 -29q-12 -13 -32 -13q-40 0 -40 21q0 15 35 88q20 41 40 83q-150 -3 -152 -3q-36 0 -36 19q0 35 83 182
q82 143 168 261q98 134 131 134q58 0 58 -46q0 -7 -38 -54q-23 -28 -47 -57q-147 -186 -216 -341l100 3q166 301 206 301q58 0 58 -41z" />
    <glyph glyph-name="five" unicode="5" 
d="M669 711q-4 -71 -56 -91q-29 -11 -113 -10q-10 0 -43 1q-26 1 -43 1q-27 -49 -85 -147q140 -31 140 -156q0 -128 -109.5 -223.5t-238.5 -95.5q-49 0 -90 9q-65 13 -65 43q0 29 11 55q15 34 39 34q7 0 53 -15q43 -14 88 -14q74 0 133 55.5t59 128.5q0 49 -39 69
q-20 11 -72 18q-39 5 -39 17q12 24 155 279q27 48 64 48q21 0 63.5 -2t64.5 -2q19 0 56.5 1.5t56.5 1.5q10 0 10 -5z" />
    <glyph glyph-name="six" unicode="6" 
d="M558 712q-3 -14 -43 -48q-150 -126 -237 -265q60 35 124 35q107 0 107 -109q0 -110 -97 -220q-99 -114 -208 -114q-69 0 -105.5 37.5t-36.5 106.5q0 30 8 68q22 106 107 238q76 118 167 206q71 69 115 69h81q11 0 16 -1zM395 301q0 50 -51 50q-26 0 -64 -13.5t-53 -30.5
q-21 -24 -38.5 -76.5t-17.5 -86.5q0 -62 53 -62q61 0 118 80q53 74 53 139z" />
    <glyph glyph-name="seven" unicode="7" 
d="M652 686q0 -15 -135 -204l-223 -312q-33 -50 -66 -99q-58 -79 -89 -79q-26 0 -47 15.5t-21 40.5q0 14 55 81l389 474h-274q-33 0 -33 19q0 17 15 42q9 15 26 35q12 14 72 17h77q254 0 254 -30z" />
    <glyph glyph-name="eight" unicode="8" 
d="M650 639q0 -14 -25.5 -33t-39.5 -19q-4 0 -39 22.5t-73 22.5q-51 0 -84.5 -37t-33.5 -89q0 -21 13 -53q58 46 96 84q48 48 59 48q21 0 21 -38q0 -16 -5 -39q-8 -38 -136 -136q30 -68 30 -129q0 -109 -73.5 -180.5t-182.5 -71.5q-58 0 -97 28q-45 32 -45 88q0 74 87 161
q49 49 150 119q-23 65 -23 112q0 92 74 156q71 62 164 62q49 0 98 -17q65 -22 65 -61zM322 249q0 25 -17 61q-163 -107 -163 -183q0 -50 56 -50q66 0 98 57q26 45 26 115z" />
    <glyph glyph-name="nine" unicode="9" 
d="M585 573q0 -117 -104 -288q-54 -88 -129 -175q-104 -119 -162 -119h-82q-6 0 -14 2l-4 5v2q0 7 42 44q163 142 240 265q-72 -36 -127 -36q-106 0 -106 106q0 113 96 223q98 115 209 115q141 0 141 -144zM477 563q0 64 -49 64q-62 0 -120 -80q-55 -75 -55 -141
q0 -50 52 -50q26 0 64.5 14t52.5 31q23 27 39 76t16 86z" />
    <glyph glyph-name="colon" unicode=":" horiz-adv-x="278" 
d="M305 405q0 -38 -25 -65t-62 -27q-51 0 -51 46q0 38 26.5 64t64.5 26q47 0 47 -44zM135 82q0 -36 -26 -63.5t-62 -27.5q-50 0 -50 43q0 39 26 65.5t65 26.5q47 0 47 -44z" />
    <glyph glyph-name="semicolon" unicode=";" horiz-adv-x="278" 
d="M305 405q0 -38 -25 -65t-62 -27q-51 0 -51 46q0 38 26.5 64t64.5 26q47 0 47 -44zM155 123q0 -23 -60.5 -98t-81.5 -75t-21 15q0 4 16 31q18 31 20 36q7 32 27 81q14 20 83 29q17 2 17 -19z" />
    <glyph glyph-name="less" unicode="&#x3c;" horiz-adv-x="808" 
d="M803 563l-19 -89l-481 -182l404 -183l-19 -87l-509 231l16 77z" />
    <glyph glyph-name="equal" unicode="=" horiz-adv-x="808" 
d="M780 431l-17 -80h-568l17 80h568zM738 233l-17 -79h-568l17 79h568z" />
    <glyph glyph-name="greater" unicode="&#x3e;" horiz-adv-x="808" 
d="M753 330l-16 -77l-607 -231l18 87l481 183l-403 182l19 89z" />
    <glyph glyph-name="question" unicode="?" horiz-adv-x="428" 
d="M517 604q0 -15 -5 -38q-15 -71 -136 -192q-73 -73 -121 -140q-9 -12 -17 -25q-11 -13 -23 -19q-26 -2 -39 -2q-26 0 -26 19q0 36 65 111q59 65 119 131q65 75 65 115q0 38 -45 38q-14 0 -40 -9t-27 -9q-19 0 -19 21q0 19 10.5 45.5t24.5 33.5q50 25 106 25q49 0 78.5 -28
t29.5 -77zM198 80q0 -35 -26 -62t-61 -27q-51 0 -51 46q0 38 26 63.5t64 25.5q48 0 48 -46z" />
    <glyph glyph-name="at" unicode="@" horiz-adv-x="970" 
d="M1010 435q0 -138 -102 -257q-107 -124 -242 -124q-85 0 -85 57q0 10 3 22q-67 -78 -160 -78q-120 0 -120 108q0 115 84 215q89 104 201 104q84 0 103 -67l37 51h73q-37 -79 -75 -158q-65 -139 -65 -154q0 -32 39 -32q24 0 55 15q74 36 124.5 120t50.5 168q0 106 -86 163
q-74 49 -184 49q-103 0 -182 -33q-132 -55 -220 -173q-91 -124 -91 -263q0 -123 93 -190q81 -58 210 -58q157 0 311 92l21 -48q-163 -108 -342 -108q-156 0 -256 72q-115 81 -115 231q0 224 185 388q178 158 404 158q137 0 228 -64q103 -74 103 -206zM656 338q0 84 -69 84
q-74 0 -137 -86q-58 -80 -58 -157q0 -64 66 -64q74 0 128 81q17 25 70 142z" />
    <glyph glyph-name="A" unicode="A" horiz-adv-x="640" 
d="M793 687q0 -16 -20 -20q-16 -1 -33 -2q-82 -8 -216 -96q-75 -49 -136 -105q-85 -77 -145 -152q-90 -113 -90 -180q0 -46 48 -46q86 0 234 162q101 111 183 238q22 36 43 72q34 55 45 61t29 6q21 0 37 -9q20 -11 20 -29q-134 -213 -149 -237q-131 -217 -131 -261
q0 -31 61 -31l-31 -65h-13q-58 0 -83 9q-42 16 -42 62q0 20 33 86q28 56 47 84q-209 -243 -357 -243q-48 0 -76 29t-28 77q0 116 127 274q182 227 446 330q112 44 156 44q17 0 29 -20t12 -38z" />
    <glyph glyph-name="B" unicode="B" horiz-adv-x="665" 
d="M816 633q0 -89 -71 -162q-60 -62 -152 -99q32 -58 32 -115q0 -104 -78 -185t-182 -81q-77 0 -141 38q-77 -85 -153 -85q-70 0 -70 91q0 6 5 28q30 130 169 297q135 162 259 228q11 34 22 67q19 52 31 61.5t40 17.5q33 10 44 10q14 0 14 -21q0 -5 -8 -21q73 42 132 42
q49 0 78 -31t29 -80zM702 608q0 50 -54 50q-46 0 -102 -39q-33 -85 -69 -164q49 0 79 -35q146 94 146 188zM527 289q0 29 -14 57q-28 -4 -44 -4q-1 0 -43 3q-84 -168 -145 -241q43 -13 73 -13q70 0 123 65q50 61 50 133zM381 472q-60 -49 -103 -98q-47 -54 -103 -141
q-67 -103 -75 -150q0 -5 -1 -17l1 -4q6 -6 15 -6q45 0 148 181q63 112 118 235z" />
    <glyph glyph-name="C" unicode="C" horiz-adv-x="573" 
d="M754 655q0 -82 -68 -162q-60 -70 -143 -107q-33 -15 -52 -15q-14 0 -23 19q-8 15 -8 30q0 6 1 8q4 11 34 23q169 65 169 181q0 34 -32 34q-89 0 -259 -191q-128 -144 -202 -266q-103 -170 -103 -274q0 -59 55 -59q106 0 259 174q25 28 33 28q11 0 23.5 -14t12.5 -26
q0 -18 -42 -64q-72 -79 -148 -133q-102 -73 -180 -73q-67 0 -102.5 38.5t-35.5 105.5q0 184 191 438q175 232 355 337q98 57 168 57q97 0 97 -89z" />
    <glyph glyph-name="D" unicode="D" horiz-adv-x="784" 
d="M835 521q0 -125 -94.5 -279t-205.5 -213q-68 -36 -137 -36q-70 0 -120 28q-64 -47 -141 -47q-78 0 -78 45q0 40 43 61q33 15 78 15q22 0 66 -8q27 40 129 219.5t207 315.5q-106 0 -245 -126q-121 -111 -176 -223q-14 -29 -20 -55.5t-12 -54.5l-14 -7h-8q-5 -1 -8 -1
q-46 0 -46 50q0 40 32 108q26 53 58 99q94 134 217 208q133 81 285 81q21 33 34 40.5t48 7.5q33 0 33 -17q-5 -12 -32 -49q107 -35 107 -162zM736 543q0 58 -57 73q-57 -78 -169 -271q-104 -180 -175 -269q24 -3 47 -3q46 0 89 22q84 43 175 199q90 153 90 249z" />
    <glyph glyph-name="E" unicode="E" horiz-adv-x="526" 
d="M713 687q0 -45 -49 -55q-9 29 -46 29q-79 0 -183.5 -104t-118.5 -185l-5 -29q28 12 55 25q32 13 58 13q51 0 51 -40q0 -38 -39 -61q-33 -19 -74 -19q-33 0 -54 5q-80 -66 -161 -161q-108 -126 -108 -191q0 -33 36 -33q53 0 124 53q43 31 110 97q54 53 62 53
q16 0 29.5 -11t13.5 -27q0 -14 -27 -46q-67 -78 -164 -142q-115 -75 -199 -75q-54 0 -86 25q-35 28 -35 80q0 108 123 240q95 102 220 178q-31 19 -31 70q0 78 71 168q66 83 163.5 141.5t174.5 58.5q33 0 57 -12q32 -15 32 -45z" />
    <glyph glyph-name="F" unicode="F" horiz-adv-x="663" 
d="M760 676q-83 -160 -179 -332q53 -11 59 -12q44 -13 44 -33q-5 -10 -16 -31l-51 -102q-13 -26 -45 -26q-30 0 -30 16q3 6 41 90q-15 5 -51 11q-101 -189 -181 -279q-131 -146 -283 -146q-54 0 -95 23q-49 27 -49 77q0 34 21.5 59.5t54.5 25.5q2 -44 21.5 -64.5t63.5 -20.5
q107 0 204 121q53 67 129 214q-19 0 -135 -21q-4 5 -4 15l22 55q15 37 167 37l142 261q-103 39 -158 39q-35 0 -62 -11q-35 -15 -40 -45l-3 -24q-11 -13 -26 -13q-37 0 -37 42q0 68 69 109q59 34 131 34q136 0 276 -69z" />
    <glyph glyph-name="G" unicode="G" horiz-adv-x="633" 
d="M685 695q0 -66 -96 -102q-47 -17 -152 -33q-119 -150 -119 -211q0 -39 46 -39q52 0 115 47q40 31 93 89q43 47 47 47q21 0 40 -11t19 -30q0 -5 -32 -66q-21 -39 -41 -78l-103 -210q-130 -266 -367 -266q-57 0 -100 21q-55 26 -55 78q0 32 17.5 58t48.5 32
q11 -46 34 -67.5t69 -21.5q117 0 213 126q57 75 126 230q-114 -90 -209 -90q-91 0 -91 88q0 84 131 251q-4 0 -18 -2t-21 -2q-70 0 -70 53q0 21 20 52q56 -10 89 -10q45 0 98 10q120 107 207 107q61 0 61 -50z" />
    <glyph glyph-name="H" unicode="H" horiz-adv-x="751" 
d="M959 694q0 -48 -34 -78t-82 -30q-231 -388 -231 -476q0 -52 73 -52l-31 -65h-11q-98 0 -134 30q-25 21 -25 78q0 44 88 227q-7 2 -57 2q-37 0 -62 -5q-168 -334 -330 -334q-58 0 -81.5 28t-23.5 87l3 15q25 108 134 184q94 65 216 85q71 127 128 243q-67 20 -123 20
q-85 0 -107 -56q-3 -1 -9 -1q-24 0 -24 23q0 64 78 99q60 27 132 27q121 0 201 -40q-79 -165 -148 -295h118q61 113 122 195q102 137 167 137q53 0 53 -48zM323 301q-70 -23 -130 -68q-79 -57 -79 -113q0 -29 30 -29q72 0 179 210z" />
    <glyph glyph-name="I" unicode="I" horiz-adv-x="507" 
d="M615 663q0 -56 -67 -225q-83 -210 -159 -317q-127 -180 -281 -180q-120 0 -120 78q0 25 12 46q14 25 36 28q15 -57 84 -57q90 0 151 88q-57 5 -86 47q-26 38 -26 98q0 95 56 199q49 92 127 165q118 111 195 111q78 0 78 -81zM501 635q0 18 -15 18q-16 0 -42 -24
q-60 -55 -122 -170q-65 -123 -65 -196q0 -63 59 -76q49 94 108 228q77 175 77 220z" />
    <glyph glyph-name="J" unicode="J" horiz-adv-x="511" 
d="M617 665q0 -95 -99 -309q-72 -157 -157 -298q39 -3 40 -3q25 0 44 4l-32 -66l-54 -3q-1 0 -43 3q-161 -222 -329 -222q-110 0 -110 86q0 13 3 28q19 97 121 145q83 40 198 40q21 0 42 -2l58 110q-66 0 -103.5 36t-37.5 102q0 109 82 229q79 115 180 166q65 33 115 33
q82 0 82 -79zM500 626q0 23 -21 23q-41 0 -112 -108q-57 -86 -82 -150q-16 -40 -16 -80q0 -66 68 -66q163 339 163 381zM197 -2h-10q-67 0 -129 -25q-81 -33 -81 -89q0 -29 34 -29q48 0 106 51q44 38 80 92z" />
    <glyph glyph-name="K" unicode="K" horiz-adv-x="750" 
d="M1006 717q0 -35 -161 -166q-115 -94 -198 -150q70 -16 70 -70q0 -37 -47.5 -121.5t-47.5 -116.5q0 -35 62 -35l-31 -65h-6q-151 0 -151 77q0 39 49.5 131t49.5 109q0 20 -28 27q-48 -54 -111 -64q-76 -127 -145 -190q-99 -92 -213 -92q-51 0 -85 22q-40 25 -40 74
q0 28 14 51q17 27 43 27q8 -74 91 -74q110 0 244 227q61 102 159 325q-62 10 -80 10q-50 0 -74 -12q-30 -15 -46 -60q-4 -1 -12 -1q-41 0 -41 38q0 66 79 101q60 26 134 26q91 0 182 -34l-67 -158q-6 -15 -71 -147q4 2 47 7q97 90 140 133q77 77 129 145q41 54 93 54
q69 0 69 -28z" />
    <glyph glyph-name="L" unicode="L" horiz-adv-x="636" 
d="M843 672q0 -87 -88 -149q-75 -53 -170 -65q-84 -210 -180 -328q31 -31 77.5 -51.5t87.5 -20.5l-31 -65h-6q-109 0 -196 73q-96 -75 -219 -75q-147 0 -147 99q0 70 63 117q58 44 129 44q90 0 166 -61q39 63 139 271q-101 15 -101 82q0 32 17 59q20 32 50 32
q0 -42 17.5 -61t59.5 -28q100 199 240 199q92 0 92 -72zM771 670q0 21 -25 21q-62 0 -123 -142q47 10 93 43q55 38 55 78zM271 122q-53 47 -129 47q-35 0 -60 -14q-30 -17 -30 -49q0 -43 77 -43q73 0 142 59z" />
    <glyph glyph-name="M" unicode="M" horiz-adv-x="1175" 
d="M1323 673q0 -51 -62 -157q-46 -74 -93 -147q-141 -222 -141 -264q0 -47 81 -47l-31 -65h-15q-96 0 -131 31q-25 22 -25 79q0 42 73 164q10 17 135 212q73 114 73 136q0 7 -6 13.5t-13 6.5q-37 0 -161 -120q-181 -175 -374 -491q-8 -13 -11 -16q-5 -6 -16 -11.5t-39 -5.5
q-73 0 -73 29q0 -2 172.5 272.5t172.5 309.5q0 28 -24 28q-44 0 -149 -107q-96 -98 -191 -239q-60 -88 -161 -261q-13 -21 -30 -28q-12 -4 -41 -4q-64 0 -64 28q0 8 76 133q96 156 143 244q76 145 76 203q0 45 -49 45q-65 0 -115 -76q-46 -69 -46 -138q0 -30 21 -48
q-23 -33 -61 -33q-57 0 -57 72q0 114 95 218.5t208 104.5q120 0 120 -96q0 -69 -100 -254q117 150 176 211q131 134 220 134q71 0 71 -87l-5 -15q-18 -82 -138 -249q124 144 200 216q150 140 238 140q32 0 51.5 -19.5t19.5 -51.5z" />
    <glyph glyph-name="N" unicode="N" horiz-adv-x="828" 
d="M954 673q0 -58 -133 -295.5t-133 -275.5q0 -44 73 -44l-32 -65h-17q-144 0 -144 97q0 50 74 187q51 87 101 175q18 33 54 100q22 41 22 67q0 16 -18 16q-51 0 -204 -175q-109 -125 -183 -229q-60 -85 -128 -201q-6 -10 -12 -20.5t-17 -14.5q-22 -9 -55 -9q-22 0 -28 2
q-13 5 -13 22q0 5 78 129q94 150 143 244q78 146 78 207q0 45 -45 45q-51 0 -103 -69q-46 -62 -53 -118l-6 -48q-2 -16 5 -49q-17 -11 -40 -11q-60 0 -60 73q0 112 92 218q96 109 205 109q53 0 82.5 -30t29.5 -83q0 -66 -66 -198q243 315 374 315q34 0 56.5 -19t22.5 -52z
" />
    <glyph glyph-name="O" unicode="O" horiz-adv-x="604" 
d="M779 585q-42 -46 -119 -94q-36 -129 -120 -251q-88 -128 -194 -197q-79 -52 -145 -52q-71 0 -109 46q-35 42 -35 115q0 143 109 314q63 99 138 167q100 90 189 90q52 22 85 22q102 0 102 -124q0 -6 -1 -17.5t-1 -17.5q45 34 71 59zM591 603q0 64 -55 64q-34 0 -55 -25
t-21 -59q0 -29 21 -44q18 -15 47 -15q19 0 52 14q11 40 11 65zM544 447q-33 -11 -68 -11q-45 0 -69 31q-23 28 -23 73q0 7 5 47q-84 -87 -141 -189q-70 -124 -70 -222q0 -79 60 -79q78 0 180 139q67 90 126 211z" />
    <glyph glyph-name="P" unicode="P" horiz-adv-x="683" 
d="M787 594q0 -135 -108 -279q-115 -154 -246 -154q-23 0 -76 11q-73 -148 -121 -213q-95 -130 -189 -130q-89 0 -89 110q0 117 108 312q70 127 166 241q111 131 216 194q97 58 190 58q149 0 149 -150zM654 581q0 67 -61 67q-42 0 -103 -37q-112 -68 -221 -218
q-90 -124 -157 -272q-43 -94 -43 -141q0 -28 22 -28q39 0 102 118q31 58 63 152q26 78 53 156q13 35 13 36q11 25 20.5 34.5t43 26.5t45.5 17q14 0 14 -11q0 -76 -56 -230q7 -1 20 -1q93 0 173 122q72 111 72 209z" />
    <glyph glyph-name="Q" unicode="Q" horiz-adv-x="701" 
d="M770 544q0 -153 -125 -290q-103 -114 -263 -191q22 -151 71 -151q8 0 28 5q2 -8 2 -13q0 -36 -29 -62.5t-65 -26.5q-88 0 -108 213q-72 -28 -127 -28t-93 27q-42 31 -42 84q0 70 55 120q52 48 123 48q114 0 157 -127q113 56 196 149q96 110 96 221q0 123 -136 123
q-62 0 -120 -37q-65 -41 -65 -100q0 -50 67 -50q-11 -94 -84 -94q-41 0 -66 34q-23 31 -23 74q0 115 112 197q103 75 221 75q96 0 156 -51q62 -54 62 -149zM260 111q-26 77 -84 77q-28 0 -47.5 -15.5t-19.5 -42.5q0 -37 58 -37q21 0 93 18z" />
    <glyph glyph-name="R" unicode="R" horiz-adv-x="658" 
d="M794 657q0 -134 -221 -275q48 -26 48 -72q0 -36 -44.5 -120t-44.5 -104q0 -28 59 -28l-31 -65h-14q-140 0 -140 77q0 40 50 129.5t50 131.5q0 8 -8 13q-50 -32 -122 -32q-162 -321 -300 -321q-47 0 -65 30q-13 22 -13 71q0 3 4 15q46 205 386 474l14 38q20 55 27 64
q13 18 58 37q38 16 54 16q7 0 9 -3.5t2 -6.5q0 2 -12 -49q85 65 158 65q41 0 68 -21q28 -24 28 -64zM671 609q0 40 -44 40q-53 0 -115 -51q-34 -81 -80 -174q38 0 81 -9q158 111 158 194zM360 488q-77 -77 -153 -173q-108 -137 -108 -191q0 -16 15 -16q40 0 135 166
q54 95 111 214z" />
    <glyph glyph-name="S" unicode="S" horiz-adv-x="631" 
d="M761 646q0 -80 -79 -80q2 10 2 16q0 77 -107 77q-67 0 -122 -35q-63 -41 -63 -105q0 -44 50 -82q46 -34 92 -69q50 -48 50 -116q0 -98 -79 -182q27 -9 60 -12l-32 -65q-29 2 -88 15q-121 -104 -270 -104q-79 0 -135 24q-76 32 -76 101q0 65 44 100q40 32 106 32
q47 0 297 -72q59 65 59 127q0 44 -50 83q-46 34 -92 69q-50 45 -50 103q0 120 108 200q98 73 222 73q57 0 99 -20q54 -27 54 -78zM352 27q-64 18 -127 37q-86 23 -125 23q-48 0 -48 -41q0 -37 53 -54q37 -12 86 -12q92 0 161 47z" />
    <glyph glyph-name="T" unicode="T" horiz-adv-x="593" 
d="M734 694q-110 -244 -140 -308q-87 -181 -158.5 -298.5t-157 -176t-184.5 -58.5q-157 0 -157 85q0 56 48 78q46 -63 124 -63q63 0 111 34q78 55 202 295q34 67 157 332q-88 27 -162 27q-113 0 -156 -53q-21 10 -21 33q0 7 1 10q13 61 88 91q57 23 132 23q109 0 273 -51z
" />
    <glyph glyph-name="U" unicode="U" horiz-adv-x="901" 
d="M1027 710q0 -6 -11 -27q-8 -13 -15 -27l-168 -365q-77 -167 -77 -195q0 -38 78 -38l-31 -65q-72 0 -107 11q-63 19 -63 74q0 60 136 303q-86 -113 -128 -163q-76 -90 -145 -146q-100 -81 -196 -81q-75 0 -75 62q0 29 21 71q19 34 37 67l153 267q63 110 63 142
q0 43 -52 43q-65 0 -125 -77q-56 -72 -56 -140q0 -26 13 -35q-3 -24 -48 -24q-60 0 -60 88q0 3 4 20q26 109 118 187t203 78q56 0 90 -25q38 -29 38 -83q0 -61 -65 -176l-161 -286q-3 -4 -15 -31q-10 -21 -10 -28q0 -6 3 -9q12 -4 15 -4q46 0 150 102q202 198 359 501
q23 44 50 44q77 0 77 -35z" />
    <glyph glyph-name="V" unicode="V" horiz-adv-x="620" 
d="M789 534l-45 -68q-16 8 -48 23q-82 -176 -203 -315q-161 -183 -309 -183q-114 0 -114 126q0 102 80 270q66 141 145 245q45 60 55 71q40 41 75 41q73 0 73 -33q0 -5 -19 -28q-11 -13 -22 -27q-83 -97 -155 -218q-82 -141 -104 -243q-3 -14 -3 -27q0 -54 49 -54
q103 0 232 173q88 118 156 263q-23 48 -23 75q0 45 28 82t72 37q51 0 51 -67q0 -51 -29 -109q26 -16 58 -34z" />
    <glyph glyph-name="W" unicode="W" horiz-adv-x="856" 
d="M1013 538l-48 -71q-10 5 -31 16q-89 -174 -184 -297q-149 -195 -268 -195q-85 0 -105 109q-109 -109 -199 -109q-107 0 -107 122q0 110 73 267q60 131 144 242q92 122 135 122q19 0 42 -9q28 -12 28 -27q0 1 -80 -101t-142 -228q-76 -153 -76 -253q0 -32 33 -32
q41 0 144 100l1 3q9 63 21 100q23 70 79 143q68 89 125 89q51 0 51 -50q0 -56 -55 -125q-45 -56 -104 -96q-10 -44 -10 -68q0 -73 55 -73q67 0 190 181q77 116 141 241q-34 37 -34 79q0 48 25 84q29 42 74 42q62 0 62 -72q0 -39 -29 -106q32 -20 49 -28z" />
    <glyph glyph-name="X" unicode="X" horiz-adv-x="719" 
d="M884 694q0 -26 -15 -43q-22 12 -34 12q-116 0 -374 -340q0 -265 191 -265l-31 -65h-35q-216 0 -239 189q-146 -172 -225 -239q-151 -128 -288 -128q-88 0 -88 59q0 26 24 63q31 -24 78 -24q174 0 486 379q3 195 3 196q0 179 -47 179q-12 0 -38 -7v5q0 36 30 59
q27 21 64 21q112 0 112 -230v-45q-1 -28 -1 -37q232 312 365 312q25 0 43.5 -13t18.5 -38z" />
    <glyph glyph-name="Y" unicode="Y" horiz-adv-x="865" 
d="M1036 708q0 -2 -16 -35q-192 -396 -308 -612q25 -5 50 -5q15 0 30 2l-31 -65q-24 -2 -38 -2q-9 0 -27 3t-25 3q-159 -238 -289 -238q-57 0 -57 42q0 58 93 124q65 46 147 81q106 158 185 340q-273 -343 -446 -343q-78 0 -78 64q0 53 134 271.5t134 260.5q0 45 -48 45
q-67 0 -130 -87q-59 -81 -59 -152q0 -26 14 -35q-6 -24 -47 -24q-61 0 -61 72q0 112 98.5 214.5t209.5 102.5q130 0 130 -111q0 -84 -106 -262l-104 -175q-28 -47 -28 -68q0 -3 2 -9q7 -5 24 -5q67 0 202 138q91 93 170 200q63 85 127 197q60 105 78 105q20 0 43 -9
q27 -12 27 -28z" />
    <glyph glyph-name="Z" unicode="Z" horiz-adv-x="561" 
d="M655 594q0 -4 -5 -29q-28 -136 -214 -227q48 -51 48 -128q0 -72 -44 -147l54 -5l-31 -65l-64 5q-182 -224 -377 -224q-51 0 -86 19q-43 24 -43 72q0 96 117 163q101 57 205 57q47 0 105 -5q31 63 38 86q10 34 10 94q0 19 -8 40q-58 -20 -98 -20q-62 0 -62 39q0 38 36 58
q29 17 69 17q41 0 66 -15q162 99 162 212q0 70 -85 70q-40 0 -74 -23t-40 -61q-4 -26 -1 -38q-21 -15 -40 -15q-45 0 -45 46q0 69 84 127q68 47 153 47q170 0 170 -150zM279 16q-78 6 -80 6q-60 0 -131 -37q-82 -43 -82 -97q0 -37 49 -37q64 0 138 56q60 45 106 109z" />
    <glyph glyph-name="bracketleft" unicode="[" horiz-adv-x="404" 
d="M600 717q0 -53 -83 -53q-11 0 -29 1t-24 1q-29 0 -43 -26l-385 -736q-4 -9 -12 -26v-4q0 -14 24 -14h68q16 0 21 -5.5t5 -21.5q0 -22 -23 -33q-18 -9 -41 -9h-131q-37 0 -37 27q0 14 17 46l426 811q32 60 78 60h143q26 0 26 -18z" />
    <glyph glyph-name="backslash" unicode="\" horiz-adv-x="375" 
d="M322 727q0 -6 -1 -10l-94 -780q-3 -28 -43 -28q-32 0 -29 28l95 779q4 29 43 29q29 0 29 -18z" />
    <glyph glyph-name="bracketright" unicode="]" horiz-adv-x="404" 
d="M560 708q0 -18 -15 -46l-428 -812q-31 -59 -76 -59h-146q-24 0 -24 20q0 24 23 39q17 11 52 11q9 0 26.5 -1t24.5 -1q24 0 35.5 6t18.5 20l385 737q12 23 12 31q0 7 -4 8q-4 6 -23 6q-8 0 -25.5 -1t-26.5 -1q-40 0 -40 19q0 51 67 51h129q35 0 35 -27z" />
    <glyph glyph-name="asciicircum" unicode="^" horiz-adv-x="970" 
d="M862 430h-98l-147 190l-230 -190h-98l294 269h103z" />
    <glyph glyph-name="underscore" unicode="_" horiz-adv-x="485" 
d="M453 -149l-17 -82h-485l17 82h485z" />
    <glyph glyph-name="grave" unicode="`" horiz-adv-x="485" 
d="M450 484h-55l-108 168h101z" />
    <glyph glyph-name="a" unicode="a" horiz-adv-x="529" 
d="M593 419q-52 -78 -104 -157q-85 -134 -85 -174q0 -30 59 -30l-31 -65h-9q-52 0 -76 6q-46 12 -46 49q0 34 47 119q-128 -176 -244 -176q-53 0 -72 30q-61 -28 -130 -28l32 65q34 4 46 7q23 4 43 15q-1 115 122.5 239.5t239.5 124.5q56 0 87 -38q9 17 19.5 34.5t28.5 17.5
q73 0 73 -39zM437 348q-31 20 -48 20q-67 0 -160.5 -100.5t-93.5 -168.5q0 -26 26 -26q95 0 276 275z" />
    <glyph glyph-name="b" unicode="b" horiz-adv-x="434" 
d="M455 680q0 -54 -49 -119q-39 -53 -93 -95q-170 -307 -170 -369q0 -25 26 -25q56 0 113 82q45 66 63 133q-54 6 -54 47q0 36 25 64.5t61 28.5q42 0 56 -35q8 -22 8 -71q-2 -11 -4 -17q-26 -114 -105 -207q-91 -106 -198 -106q-60 0 -87 36q-77 -34 -145 -34l31 66
q62 0 101 27q12 65 28 106q37 93 126 261q102 192 149 240q35 36 72 36q46 0 46 -49z" />
    <glyph glyph-name="c" unicode="c" horiz-adv-x="375" 
d="M428 383q0 -26 -18.5 -50t-44.5 -24q-5 0 -11 2q-1 6 0 14q1 11 1 14q0 26 -33 26q-63 0 -116 -75q-50 -70 -50 -136q0 -96 153 -96l-32 -65q-10 -2 -17 -2q-132 0 -185 53q-79 -51 -173 -51l32 65q58 0 108 29q-8 30 -8 44q0 114 95.5 216t208.5 102q90 0 90 -66z" />
    <glyph glyph-name="d" unicode="d" horiz-adv-x="529" 
d="M750 704q0 -3 -90 -143q-110 -169 -169 -271q-90 -156 -90 -197q0 -35 62 -35l-31 -65h-9q-52 0 -76 6q-46 12 -46 49q0 34 47 119q-130 -176 -240 -176q-54 0 -73 34q-49 -32 -133 -32l32 65q33 4 46 7q21 4 43 15q0 124 118.5 246.5t241.5 122.5q44 0 81 -23l118 207
q30 52 41 66q30 38 63 38q31 0 42 -3q22 -7 22 -30zM424 359q-13 8 -31 8q-68 0 -164.5 -99t-96.5 -163q0 -32 30 -32q89 0 262 286z" />
    <glyph glyph-name="e" unicode="e" horiz-adv-x="361" 
d="M400 367q0 -71 -72 -157q-57 -67 -133 -118q29 -34 99 -34l-31 -65h-13q-106 0 -153 48q-116 -48 -195 -48l32 65q59 4 120 27q-15 26 -15 62q0 113 80 205q83 97 194 97q87 0 87 -82zM324 341q0 28 -32 28q-50 0 -95 -69q-41 -64 -41 -118q0 -21 11 -40q51 30 100 86
q57 65 57 113z" />
    <glyph glyph-name="f" unicode="f" horiz-adv-x="418" 
d="M591 657q0 -122 -141 -285q-112 -129 -245 -217q49 -24 49 -93q57 -9 98 -4l-32 -65q-4 0 -12 -1h-13q-25 0 -53 5q-28 -93 -84 -159q-69 -81 -153 -81q-74 0 -74 71q0 63 69 196q-44 -25 -98 -31l31 65q40 0 81 41q38 38 99 159q96 190 163 288q132 193 236 193
q79 0 79 -82zM507 637q0 21 -22 21q-67 0 -303 -457q164 131 293 355q32 56 32 81zM172 24q-42 23 -42 66q0 6 1 12q-99 -192 -99 -234q0 -24 19 -24q56 0 121 180z" />
    <glyph glyph-name="g" unicode="g" horiz-adv-x="538" 
d="M602 433q0 -14 -21 -48l-211 -340q16 5 100 13l-31 -65q-37 -3 -107 -17q-60 -96 -94 -137q-73 -86 -132 -86q-51 0 -51 44q0 85 161 159q46 69 132 211q-128 -176 -244 -176q-53 0 -72 30q-61 -28 -130 -28l32 65q33 4 46 7q21 4 43 15q-2 114 122 239t239 125
q58 0 91 -40q13 32 26.5 41t47.5 9q53 0 53 -21zM436 348q-29 20 -47 20q-67 0 -160.5 -100.5t-93.5 -168.5q0 -26 26 -26q58 0 154 111q61 71 121 164z" />
    <glyph glyph-name="h" unicode="h" horiz-adv-x="515" 
d="M546 399q0 -38 -78 -163t-78 -152q0 -26 58 -26l-31 -65h-11q-134 0 -134 70q0 32 40 100q29 49 59 98q17 22 39 70q-1 11 -13 11q-28 0 -102 -71q-83 -79 -169 -225q-32 -55 -90 -55q-31 0 -31 12q0 15 19 37q-60 -47 -122 -47q10 22 32 65q6 12 32.5 29.5t39.5 17.5
q11 0 16 -5q41 37 92 134l165 312q25 50 51 101q42 68 86 68h37q23 -4 23 -22q0 -7 -48 -87l-238 -396q191 233 304 233q52 0 52 -44z" />
    <glyph glyph-name="i" unicode="i" horiz-adv-x="277" 
d="M444 691q0 -37 -29 -67t-66 -30q-46 0 -46 41q0 38 29 70t66 32q46 0 46 -46zM326 426q0 -5 -88 -160.5t-88 -177.5q0 -30 60 -30l-30 -65h-17q-114 0 -114 68q-72 -68 -147 -68l31 65q70 0 140 101q36 53 86 161q34 74 46 89q31 39 87 39q34 0 34 -22z" />
    <glyph glyph-name="j" unicode="j" horiz-adv-x="297" 
d="M444 691q0 -37 -29 -67t-66 -30q-46 0 -46 41q0 38 29 70t66 32q46 0 46 -46zM326 426q0 -6 -32 -62l-34 -58q-43 -87 -130 -261q34 6 100 13l-31 -65q-37 -3 -108 -17q-93 -233 -196 -233q-48 0 -48 50q0 85 141 158l57 106q-72 -64 -143 -64l31 65q70 0 140 101
q37 54 86 161q33 73 46 89q31 39 87 39q34 0 34 -22z" />
    <glyph glyph-name="k" unicode="k" horiz-adv-x="466" 
d="M495 416q0 -40 -56 -101q-49 -54 -92 -77q25 -14 25 -37q0 -20 -16 -57.5t-16 -56.5q0 -29 60 -29l-31 -65q-140 0 -140 60q0 23 43 130q-40 -18 -63 -18q-12 0 -26 3l-49 -96q-31 -61 -32 -62q-17 -19 -66 -19q-31 0 -31 12q0 15 19 37q-60 -47 -122 -47l31 65
q6 13 32.5 30.5t41.5 17.5q8 0 16 -5q43 40 91 133l197 378q41 79 42 80q28 39 76 39q51 0 51 -31q0 -6 -27 -51l-28 -46l-201 -356q26 10 48 10q23 0 32 -3q57 54 95 147q18 44 49 44q47 0 47 -29z" />
    <glyph glyph-name="l" unicode="l" horiz-adv-x="271" 
d="M465 689q0 -46 -48 -116q-30 -44 -69 -84q-13 -11 -33 -33q-23 -33 -88 -181q-68 -156 -68 -187q0 -30 47 -30l-32 -65h-11q-102 0 -108 63q-79 -63 -153 -63l31 65q49 0 129 61q51 139 127 302q101 215 164 279q35 36 70 36q42 0 42 -47z" />
    <glyph glyph-name="m" unicode="m" horiz-adv-x="745" 
d="M774 399q0 -36 -77.5 -161.5t-77.5 -153.5q0 -26 59 -26l-31 -65h-6q-140 0 -140 67q0 9 4 29t41 79q24 40 49 79q17 29 46 87v12l-9 4q-20 0 -95 -75q-93 -93 -143 -172l-40 -63q-29 -45 -66 -45q-59 0 -59 20q0 5 91 150t91 172q0 13 -15 13q-24 0 -96 -72
q-61 -61 -108 -129l-94 -144q-9 -14 -62 -14q-31 0 -31 16q7 15 18 33q-56 -47 -121 -47l31 65q75 0 140 103q15 23 95 191q49 103 85 103q66 0 66 -20q0 -2 -59 -104q-65 -111 -71 -122q194 237 286 237q51 0 51 -43q0 -44 -102 -190q93 107 129 142q97 91 160 91
q61 0 61 -47z" />
    <glyph glyph-name="n" unicode="n" horiz-adv-x="515" 
d="M546 399q0 -36 -78 -162t-78 -153q0 -26 58 -26l-31 -65h-11q-134 0 -134 70q0 33 40 100q29 49 59 98q2 3 22 34q14 21 17 36q-1 11 -13 11q-28 0 -102 -71q-83 -79 -169 -225q-32 -55 -90 -55q-31 0 -31 12q0 15 19 37q-60 -47 -122 -47l31 65q75 0 140 103
q14 22 95 191q49 103 86 103q64 0 64 -20q0 -1 -59 -104q-62 -108 -69 -121q191 233 304 233q52 0 52 -44z" />
    <glyph glyph-name="o" unicode="o" horiz-adv-x="431" 
d="M447 362q0 -106 -99 -235q-105 -136 -208 -136q-66 0 -93 36q-81 -34 -145 -34l32 65q34 4 46 7q22 4 43 15q-2 22 -2 32q0 105 104 221t208 116q20 0 20 -17q0 -8 -74 -71q-48 -41 -99 -122q-56 -90 -56 -144q0 -34 34 -34q47 0 109.5 70t83.5 160q-39 5 -39 41
q0 35 25.5 63.5t59.5 28.5q50 0 50 -62z" />
    <glyph glyph-name="p" unicode="p" horiz-adv-x="505" 
d="M531 356q0 -74 -67 -159q-51 -66 -127 -122q24 -11 102 -17l-32 -65h-12q-77 0 -126 33q-61 -26 -109 -26q-37 0 -73 23q-40 -68 -109 -224q-11 -24 -29 -33q-21 -10 -65 -10q-23 0 -25 13q19 50 61 125q56 101 67 123q-48 -24 -85 -24l31 65q57 0 124 102q44 67 79 154
q46 113 52 125q45 83 98 83q38 0 38 -16q0 -12 -56 -118q-35 -63 -69 -127q147 188 241 188q42 0 66.5 -25.5t24.5 -67.5zM420 320q0 41 -36 41q-56 0 -143 -105q-57 -68 -110 -158q42 18 94 18q13 0 47 -15q53 40 96 97q52 69 52 122z" />
    <glyph glyph-name="q" unicode="q" horiz-adv-x="539" 
d="M559 417q0 -7 -87 -178l-100 -194q34 6 100 13l-32 -65q-34 -3 -101 -14q-51 -103 -81 -184q-11 -30 -27 -37.5t-44 -7.5q-53 0 -53 20q0 10 30 69l141 278q-105 -126 -202 -126q-52 0 -71 30q-61 -28 -130 -28l32 65q55 7 88 21q-5 108 113.5 235t226.5 127q46 0 85 -31
q15 39 49 39q63 0 63 -32zM417 352q-16 14 -36 14q-32 0 -66 -18q-55 -29 -116 -107q-66 -84 -66 -139q0 -29 28 -29q58 0 148 114q60 76 108 165z" />
    <glyph glyph-name="r" unicode="r" horiz-adv-x="448" 
d="M432 321q0 -27 -62.5 -121t-62.5 -114q0 -28 74 -28l-32 -65h-14q-144 0 -144 66q0 43 60 133.5t60 107.5q0 16 -44 46q-84 -147 -147 -221q-112 -132 -219 -132l31 65q76 12 169 134q48 62 122 192q-12 16 -12 38q0 36 24.5 66.5t59.5 30.5q47 0 47 -41q0 -26 -21 -53
l66 -42q45 -34 45 -62z" />
    <glyph glyph-name="s" unicode="s" horiz-adv-x="453" 
d="M420 463q0 -46 -65 -92q46 -71 46 -144q0 -38 -26 -86q-23 -44 -54 -72q20 -14 66 -11l-32 -65h-14q-55 0 -94 22q-61 -24 -111 -24q-76 0 -115 46q-43 -28 -119 -44l31 65q60 8 180 128q77 76 156 175q-10 13 -10 29q0 44 37 76.5t81 32.5q43 0 43 -36zM285 241v32
q0 15 -1 22q-51 -80 -169 -181q31 -14 41 -56q61 11 97 67q32 51 32 116z" />
    <glyph glyph-name="t" unicode="t" horiz-adv-x="321" 
d="M428 629q0 -2 -32 -60l-89 -161h80q15 0 15 -12q0 -3 -15 -30q-10 -17 -41 -17h-69l-56 -106q-55 -110 -55 -136q0 -49 89 -49l-32 -65h-11q-127 0 -156 59q-31 -23 -73 -40q-47 -19 -81 -19l31 65q96 0 168 149l69 142q-53 0 -59 2q-2 6 -2 10q1 5 16 31q8 15 35 17
q-8 -1 41 -1l79 155q30 60 32 62q23 34 56 34q60 0 60 -30z" />
    <glyph glyph-name="u" unicode="u" horiz-adv-x="515" 
d="M569 417q0 4 -86.5 -139t-86.5 -193q0 -16 19 -22q6 -2 33 -5l-31 -65h-9q-107 0 -107 52q0 36 46 123q-68 -77 -104 -109q-75 -66 -131 -66q-64 0 -70 43q-53 -33 -140 -43l32 65q55 0 112 31q-6 35 137 289q43 77 65 77q24 0 51 -9q35 -11 35 -29q0 -1 -86 -132
q-88 -135 -98 -190q4 -19 23 -19q56 0 148 126q64 89 111 182q34 68 66 68q23 0 43 -7q28 -9 28 -28z" />
    <glyph glyph-name="v" unicode="v" horiz-adv-x="431" 
d="M470 388q0 -78 -97 -205q-89 -117 -166 -163q-49 -29 -96 -29q-60 0 -75 32q-58 -30 -134 -30l32 65q34 4 46 7q23 4 43 15q-3 46 17 97q23 61 85 159q74 118 108 118q26 0 46 -10q24 -12 24 -35q0 1 -89 -133.5t-89 -183.5q0 -26 26 -26q51 0 125 93q56 72 87 140
q-37 0 -37 45q0 37 26 68.5t62 31.5q56 0 56 -56z" />
    <glyph glyph-name="w" unicode="w" horiz-adv-x="640" 
d="M680 393q0 -41 -46 -125q-58 -107 -124 -177q-93 -100 -179 -100q-88 0 -88 77q-95 -77 -148 -77q-36 0 -61 30q-66 -28 -132 -28l32 65q57 5 87 18q-2 27 1 52q4 39 75.5 168.5t102.5 148.5q13 8 38 8q61 0 61 -33q0 -1 -47 -65q-56 -74 -86 -129q-45 -80 -41 -125
l1 -11q5 -8 20 -8q40 0 114 68q11 42 52 126q46 93 70 108q9 6 33 6q62 0 62 -29q-68 -111 -75 -124q-54 -98 -54 -139q0 -5 2 -13q7 -10 21 -10q47 0 113 88q51 66 79 129q-30 11 -30 44q0 40 27.5 74.5t67.5 34.5q52 0 52 -52z" />
    <glyph glyph-name="x" unicode="x" horiz-adv-x="403" 
d="M472 413q0 -25 -17 -42q-5 1 -14 1q-58 0 -192 -194q0 -51 19.5 -79.5t68.5 -40.5l-31 -65q-15 -3 -32 -3q-43 0 -79 23.5t-46 63.5q-42 -32 -97 -57q-65 -29 -107 -29q-14 0 -40 2l28 65q99 0 207 93q0 98 -1 121q-7 106 -35 111q5 28 25 47t48 19q49 0 62 -66
q5 -25 5 -105q59 80 83 105q61 66 107 66q38 0 38 -36z" />
    <glyph glyph-name="y" unicode="y" horiz-adv-x="528" 
d="M569 410q0 -5 -103 -184q-89 -154 -105 -181q26 6 100 13l-31 -65q-72 -6 -112 -17q-109 -227 -212 -227q-43 0 -43 35q0 51 57 103q46 43 103 68q44 71 127 215q-135 -179 -238 -179q-21 0 -38 10q-20 12 -24 31q-78 -32 -148 -39l32 65q55 0 112 31q8 33 35 99
q26 61 77 149q67 115 96 115q68 0 68 -35q0 -3 -81.5 -131.5t-81.5 -177.5q0 -22 24 -22q42 0 115 78q50 54 91 116q26 40 58 103.5t61 63.5q61 0 61 -37z" />
    <glyph glyph-name="z" unicode="z" horiz-adv-x="379" 
d="M364 326q0 -9 -4 -21q-14 -68 -60.5 -112.5t-114.5 -54.5q34 -23 45 -79q32 -5 82 -1l-32 -65l-44 1q-72 -241 -246 -241q-42 0 -67 22t-25 63q0 89 79 154q75 61 167 61q0 38 -28 55q-18 11 -54 15q-30 3 -31 7q4 12 10.5 35t38.5 23q62 0 115 34q60 39 60 98
q0 39 -43 39q-23 0 -52 -18q-14 5 -14 21q0 41 34 67q31 25 73 25q111 0 111 -128zM137 -5q-144 -18 -167 -117q-1 -2 -1 -7q0 -30 33 -30q43 0 86.5 47t46.5 91q0 5 2 16z" />
    <glyph glyph-name="braceleft" unicode="{" horiz-adv-x="485" 
d="M564 707l-18 -86q-7 1 -22 1q-55 0 -78 -25q-20 -21 -32 -78l-24 -115q-14 -68 -38 -99q-28 -36 -90 -52q72 -17 72 -88q0 -38 -19.5 -115t-19.5 -113q0 -39 32 -47q3 -1 63 -4l-18 -84h-30q-141 0 -150 56q-3 18 -3 28q0 42 21 126.5t21 126.5q0 74 -81 74q-13 0 -28 -2
l18 86q7 -1 20 -1q62 0 94 32q28 29 42 92l26 119q13 59 23 82q19 43 55 62q47 24 143 24h21z" />
    <glyph glyph-name="bar" unicode="|" horiz-adv-x="485" 
d="M444 749l-208 -980h-84l208 980h84z" />
    <glyph glyph-name="braceright" unicode="}" horiz-adv-x="485" 
d="M471 297l-18 -86q-7 1 -20 1q-63 0 -95 -32q-28 -28 -42 -93l-25 -119q-12 -59 -23 -82q-18 -40 -56 -61q-42 -23 -162 -23l18 84q4 0 11 -1h10q54 0 79 26q20 21 32 78l25 115q14 67 38 98q30 38 90 51q-74 19 -74 84q0 40 20 117.5t20 116.5q0 52 -66 52q-13 0 -28 -2
l17 86h21q72 0 104 -10q57 -19 57 -75q0 -42 -21.5 -126.5t-21.5 -125.5q0 -43 24 -60q20 -14 66 -14q14 0 20 1z" />
    <glyph glyph-name="asciitilde" unicode="~" horiz-adv-x="808" 
d="M805 375l-19 -88q-62 -36 -105 -50q-51 -17 -116 -17q9 0 -19.5 5t-107.5 34q-67 25 -111 25q-73 0 -199 -76l19 89q116 69 199 69q50 0 136.5 -32t126.5 -32q78 0 196 73z" />
    <glyph glyph-name="exclamdown" unicode="&#xa1;" horiz-adv-x="278" 
d="M455 684q0 -36 -25 -64.5t-61 -28.5q-51 0 -51 43q0 38 24.5 65.5t61.5 27.5q51 0 51 -43zM332 488q0 -14 -95 -215q-54 -114 -109 -229q-24 -52 -56 -52q-21 0 -52 16q-36 19 -29 38q8 23 20 43l234 387q14 23 17 26q11 12 28 12q42 0 42 -26z" />
    <glyph glyph-name="cent" unicode="&#xa2;" 
d="M571 521q0 -17 -17.5 -42t-33.5 -25q-16 13 -55 32l-145 -281h6q22 0 86 19q7 2 12 -7.5t5 -16.5q0 -36 -59 -58q-46 -16 -91 -16l-45 -85q-8 -16 -22 -18q4 1 -31 1q-6 0 -11 8q4 15 54 109q-74 38 -74 128q0 107 93.5 202.5t200.5 95.5q13 27 26 55q11 12 53 12
q5 0 7 -1q4 -6 5 -9q-10 -20 -30 -61q21 -2 41 -12q25 -13 25 -30zM404 483q-65 -20 -109 -78t-44 -127q0 -21 20 -50z" />
    <glyph glyph-name="sterling" unicode="&#xa3;" 
d="M674 628q0 -16 -25 -35.5t-42 -19.5l-30 44q-19 20 -49 20q-64 0 -111 -97q-21 -43 -52 -151h94q19 0 19 -11q-13 -29 -23 -37q-12 -11 -40 -11h-71q-52 -142 -143 -235q42 -14 111 -14q58 0 128 10l-41 -87q-73 -14 -129 -14q-68 0 -143 30q-63 -29 -97 -29
q-61 0 -61 42q0 38 28 65t66 27q23 0 55 -12q81 78 121 217h-93q-17 0 -18 12q5 11 15.5 29t46.5 18h71q40 145 88 216q73 111 189 111q46 0 87 -21q49 -25 49 -67z" />
    <glyph glyph-name="currency" unicode="&#xa4;" horiz-adv-x="588" 
d="M690 640l-118 -98q17 -29 17 -79q0 -84 -67 -158l76 -98l-54 -44l-76 98q-60 -39 -126 -39q-67 0 -111 39l-116 -98l-35 44l117 98q-17 32 -17 78q0 85 67 159l-75 98l53 44l76 -97q55 39 126 39q72 0 111 -39l116 97zM526 453q0 47 -32 78.5t-79 31.5
q-66 0 -118.5 -52.5t-52.5 -118.5q0 -48 31.5 -77.5t80.5 -29.5q65 0 117.5 52t52.5 116z" />
    <glyph glyph-name="yen" unicode="&#xa5;" 
d="M699 667q0 -7 -88.5 -86t-159.5 -164q-13 0 58 2q36 1 57 -3l2 -7q0 -1 -1 -4q-12 -21 -17 -25q-8 -7 -29 -7l-111 1l-59 -77q162 0 166 -2l3 -7q-11 -23 -19 -30t-31 -7h-147q-25 -44 -58 -117q-43 -95 -55 -118q-6 -12 -37 -19q-24 -6 -43 -6t-26 5q-2 10 -2 16
q0 2 57 110q60 115 67 129h-153q-11 0 -15 7q0 4 4 10q10 19 17 24t27 5h139l1 76q-130 0 -136 2l-2 7q1 6 9.5 18t14.5 15q11 3 34 4q16 0 43 -1q31 -1 36 -1q0 67 -16 168q-12 76 -12 82q0 18 36 34q32 15 53 15q41 0 41 -214q0 -29 -1 -66t-1 -40q65 86 145 178
q125 142 161 142q17 0 32.5 -16t15.5 -33z" />
    <glyph glyph-name="brokenbar" unicode="&#xa6;" horiz-adv-x="485" 
d="M431 685l-77 -362h-84l77 362h84zM326 195l-76 -362h-84l76 362h84z" />
    <glyph glyph-name="section" unicode="&#xa7;" 
d="M621 635q0 -22 -15 -36.5t-38 -14.5q-15 0 -27 23q-20 35 -26 41q-20 23 -53 23q-32 0 -56 -20t-24 -51q0 -38 60 -130t60 -150q0 -74 -50.5 -119.5t-125.5 -45.5q13 -30 13 -67q0 -71 -56 -114q-52 -40 -124 -40q-55 0 -99 25q-53 30 -53 81q0 23 15.5 38t37.5 15
q15 0 28 -23q18 -35 24 -41q21 -23 56 -23q33 0 55 21t22 54q0 37 -59.5 129.5t-59.5 149.5q0 71 54 117q50 44 122 44q-13 39 -13 71q0 68 58 112q53 40 123 40q54 0 99 -27q52 -31 52 -82zM409 302q0 42 -39 98q-42 60 -81 60q-30 0 -50 -24t-20 -55q0 -39 38 -97
q41 -61 79 -61q32 0 52.5 23t20.5 56z" />
    <glyph glyph-name="dieresis" unicode="&#xa8;" horiz-adv-x="485" 
d="M552 571q0 -26 -21.5 -45t-47.5 -19q-44 0 -44 43q0 26 21 46.5t46 20.5q46 0 46 -46zM383 571q0 -26 -21 -45t-47 -19q-45 0 -45 44q0 26 21 46t47 20q20 0 32.5 -13t12.5 -33z" />
    <glyph glyph-name="copyright" unicode="&#xa9;" horiz-adv-x="808" 
d="M763 427q0 -168 -133 -300t-302 -132q-123 0 -203 80.5t-80 203.5q0 162 135.5 293.5t297.5 131.5q124 0 204.5 -77t80.5 -200zM710 417h1q0 105 -68 170t-174 65q-141 0 -256 -111.5t-115 -251.5q0 -103 69 -172t172 -69q144 0 257.5 112.5t113.5 256.5zM589 453v-21
h-78q0 74 -74 74q-66 0 -107 -78q-35 -66 -35 -138q0 -92 79 -92q80 0 107 80h79q-16 -65 -74 -104t-127 -39q-70 0 -110.5 39t-40.5 109q0 110 66 192q70 89 177 89q58 0 95 -25q43 -30 43 -86z" />
    <glyph glyph-name="ordfeminine" unicode="&#xaa;" horiz-adv-x="562" 
d="M538 724q-38 -56 -77 -112q-60 -91 -60 -121q0 -14 43 -21l-23 -45h-7q-91 0 -91 38q0 21 35 84q-101 -123 -181 -123q-43 0 -55 21q-19 -9 -98 -20l23 45q35 0 67 16q-1 7 4 30q20 82 101.5 153.5t162.5 71.5q43 0 66 -27q6 12 13.5 24.5t21.5 12.5q55 0 55 -27z
M421 674q-16 14 -35 14q-49 0 -119 -69.5t-70 -118.5q0 -19 19 -19q73 0 205 193z" />
    <glyph glyph-name="guillemotleft" unicode="&#xab;" horiz-adv-x="422" 
d="M457 365q-2 -13 -77 -78q-45 -40 -91 -79q17 -41 42 -124q-2 -17 -19.5 -32.5t-34.5 -15.5q-7 0 -11.5 3.5t-7.5 8.5q-18 54 -50 161l1 7q9 18 186 176q6 5 24 12q15 0 26.5 -12t11.5 -27zM288 365q-6 -13 -12 -19l-155 -138q18 -43 42 -125q-2 -16 -20 -31.5t-35 -15.5
q-13 0 -18 12q-18 54 -50 160q-1 12 13 25l174 159q12 11 23 12q14 0 26 -12.5t12 -26.5z" />
    <glyph glyph-name="logicalnot" unicode="&#xac;" horiz-adv-x="808" 
d="M776 413l-51 -241h-79l34 161h-489l17 80h568z" />
    <glyph glyph-name="registered" unicode="&#xae;" horiz-adv-x="808" 
d="M837 428q0 -170 -132.5 -301.5t-302.5 -131.5q-123 0 -202.5 80.5t-79.5 203.5q0 165 134 295t299 130q124 0 204 -76t80 -200zM784 436q0 6 -4 27q-17 88 -81.5 138.5t-155.5 50.5q-140 0 -255 -111.5t-115 -251.5q0 -103 67 -172t170 -69q93 0 181 52q85 49 139 131
t54 205zM675 470q0 -50 -31 -85.5t-81 -47.5l49 -179h-94l-43 165h-61l-35 -165h-84l84 397h151q145 0 145 -85zM587 453q0 48 -84 48h-52l-26 -125h56q106 0 106 77z" />
    <glyph glyph-name="degree" unicode="&#xb0;" horiz-adv-x="319" 
d="M422 589q0 -67 -53.5 -120t-121.5 -53q-49 0 -80 29.5t-31 78.5q0 69 52 122t121 53q48 0 80.5 -31t32.5 -79zM368 578q0 30 -20 49t-51 19q-43 0 -75.5 -32.5t-32.5 -75.5q0 -30 20 -50t50 -20q42 0 75.5 34t33.5 76z" />
    <glyph glyph-name="plusminus" unicode="&#xb1;" horiz-adv-x="808" 
d="M777 417l-17 -79h-243l-35 -159h-80l34 159h-244l17 79h244l34 160h80l-34 -160h244zM707 87l-18 -80h-568l17 80h569z" />
    <glyph glyph-name="twosuperior" unicode="&#xb2;" horiz-adv-x="338" 
d="M432 626q0 -60 -108 -156q-33 -29 -159 -123l130 -1q30 0 30 -13q0 -18 -11.5 -34t-29.5 -16h-245q-10 0 -14 4l-1 3q1 20 86 78q122 85 158 115q84 72 84 125q0 46 -56 46q-8 0 -23.5 -4t-22.5 -4q-12 0 -18 5v5q-1 4 -1 6q0 51 83 51q47 0 79 -19q39 -24 39 -68z" />
    <glyph glyph-name="threesuperior" unicode="&#xb3;" horiz-adv-x="338" 
d="M418 635q0 -68 -90 -110l-1 -3q43 -21 43 -67q0 -73 -74 -127q-68 -50 -144 -50q-65 0 -89 23q-6 3 -6 34q0 6 7.5 16.5t12.5 11.5q51 -23 77 -23q54 0 94 28q45 32 45 83q0 21 -19 30q-10 5 -36 7q-22 3 -25 8t-3 9q0 27 29 32q109 20 109 82q0 19 -17.5 29t-36.5 10
q-13 0 -39 -2q0 36 13 46.5t48 10.5q40 0 68 -18q34 -22 34 -60z" />
    <glyph glyph-name="acute" unicode="&#xb4;" horiz-adv-x="485" 
d="M553 652l-179 -168h-63l141 168h101z" />
    <glyph glyph-name="paragraph" unicode="&#xb6;" horiz-adv-x="485" 
d="M609 708l-10 -48h-56l-140 -660h-61l140 660h-79l-140 -660h-62l80 375q-61 0 -101 32q-43 34 -43 94q0 90 68 150q65 57 156 57h248z" />
    <glyph glyph-name="cedilla" unicode="&#xb8;" horiz-adv-x="485" 
d="M211 -107q0 -56 -42.5 -89t-99.5 -33q-55 0 -134 25l31 53q59 -22 101 -22q25 0 45.5 13.5t20.5 37.5q0 22 -36 27q-9 1 -52 1l53 94h43l-27 -45q97 0 97 -62z" />
    <glyph glyph-name="onesuperior" unicode="&#xb9;" horiz-adv-x="338" 
d="M426 694q-124 -236 -200 -397q-7 -15 -38 -15q-37 0 -37 15q0 14 39 85l136 247q-78 -39 -84 -39q-20 0 -20 30q0 9 79 51t99 42q26 0 26 -19z" />
    <glyph glyph-name="ordmasculine" unicode="&#xba;" horiz-adv-x="323" 
d="M423 683q0 -78 -74 -167q-76 -92 -153 -92q-48 0 -69 26q-52 -25 -109 -25l23 45q35 0 67 16q-2 16 -2 24q0 76 77.5 155.5t153.5 79.5q15 0 15 -12q0 -2 -22 -24q-52 -41 -93 -93q-54 -69 -54 -118q0 -26 25 -26q44 0 91 61q40 52 53 101q-30 2 -30 29q0 24 19.5 44.5
t42.5 20.5q39 0 39 -45z" />
    <glyph glyph-name="guillemotright" unicode="&#xbb;" horiz-adv-x="422" 
d="M391 224l-4 -9l-8 -8l-175 -159q-13 -12 -22 -12q-13 0 -26 13.5t-13 26.5q0 8 78 77q44 39 89 78q-13 49 -42 124q4 19 20.5 34t35.5 15q13 0 17 -12l49 -153q1 -3 1 -15zM223 224l-4 -9l-8 -8l-175 -159q-13 -12 -23 -12q-12 0 -25 14t-13 26q3 6 13 18l153 137
q-14 42 -41 126q2 17 19.5 31t35.5 16q10 -4 17 -12q20 -55 51 -168z" />
    <glyph glyph-name="onequarter" unicode="&#xbc;" horiz-adv-x="807" 
d="M819 271l-39 -57l-58 -85q46 3 55 2l8 -3l3 -10q-12 -31 -23 -40.5t-31 -9.5q-5 0 -20 1t-26 1l-50 -84q-14 -24 -33 -24q-24 0 -24 11q0 8 44 96l-94 -2q-16 0 -20.5 3t-4.5 12q0 34 102.5 177t129.5 143q38 0 38 -22q0 -6 -28 -39q-91 -108 -156 -218l64 2q28 44 57 89
q52 79 68 79q38 0 38 -22zM814 705q0 -1 -1.5 -4l-2.5 -5l-564 -684q-17 -21 -46 -21q-42 0 -42 16q4 6 7 9l563 684q16 20 41 20q45 0 45 -15zM414 695q-58 -104 -133 -252q-2 -5 -38 -79q-10 -22 -20 -43q-9 -10 -43 -10q-26 0 -26 18q0 8 35 72l128 233q-72 -36 -80 -36
q-18 0 -18 28q0 10 76.5 48t92.5 38q26 0 26 -17z" />
    <glyph glyph-name="onehalf" unicode="&#xbd;" horiz-adv-x="807" 
d="M838 320q0 -56 -103 -146q-33 -28 -150 -114l124 -1q29 0 29 -15q0 -16 -11.5 -30t-26.5 -14h-234q-6 0 -12 3q-2 3 -2 10q0 10 80 64q105 71 150 109q80 69 80 117q0 43 -54 43q-8 0 -22.5 -3.5t-21.5 -3.5q-13 0 -16 5v17q0 41 77 41q44 0 75 -18q38 -23 38 -64z
M814 705q-8 -17 -568 -693q-17 -21 -42 -21q-46 0 -46 16l6 9l564 684q16 20 41 20q45 0 45 -15zM413 695q-48 -86 -132 -252q-2 -5 -38 -79q-10 -22 -20 -43q-8 -10 -42 -10q-27 0 -27 18q0 8 35 72l128 233q-72 -36 -80 -36q-18 0 -18 28q0 11 76.5 48.5t92.5 37.5
q25 0 25 -17z" />
    <glyph glyph-name="threequarters" unicode="&#xbe;" horiz-adv-x="807" 
d="M819 271l-39 -57l-58 -85q46 3 55 2l8 -3l3 -10q-12 -31 -23 -40.5t-31 -9.5q-5 0 -20 1t-26 1l-50 -84q-14 -24 -33 -24q-24 0 -24 11q0 8 44 96l-94 -2q-16 0 -20.5 3t-4.5 12q0 34 102.5 177t129.5 143q38 0 38 -22q0 -6 -28 -39q-91 -108 -156 -218l64 2q28 44 57 89
q52 79 68 79q38 0 38 -22zM814 705q0 -1 -1.5 -4l-2.5 -5l-564 -684q-17 -21 -46 -21q-42 0 -42 16l6 9l564 684q16 20 41 20q45 0 45 -15zM407 639q0 -65 -86 -101v-4q41 -22 41 -65q0 -68 -72 -117q-65 -45 -136 -45q-92 0 -92 38q0 30 20 41q47 -21 74 -21q50 0 88 26
q43 29 43 76q0 23 -20 31q-5 1 -38 6q-20 3 -20 14q0 20 34 32q62 21 63 22q34 18 34 53q0 42 -90 35v14q0 39 58 39q38 0 66 -17q33 -21 33 -57z" />
    <glyph glyph-name="questiondown" unicode="&#xbf;" horiz-adv-x="428" 
d="M514 675q0 -38 -25 -66t-63 -28q-50 0 -50 43q0 37 25 65t62 28q51 0 51 -42zM422 496q0 -41 -64 -115q-60 -64 -120 -129q-64 -74 -64 -117q0 -37 45 -37q18 0 65 18q21 0 21 -18q0 -20 -9 -44q-9 -29 -23 -37q-43 -26 -109 -26q-108 0 -108 124l5 15q18 80 137 199
q28 28 82 87q25 38 65 89q10 8 54 8q23 0 23 -17z" />
    <glyph glyph-name="Agrave" unicode="&#xc0;" horiz-adv-x="640" 
d="M780 828h-56l-107 168h101zM793 687q0 -16 -20 -20q-16 -1 -33 -2q-82 -8 -216 -96q-75 -49 -136 -105q-85 -77 -145 -152q-90 -113 -90 -180q0 -46 48 -46q86 0 234 162q101 111 183 238q22 36 43 72q34 55 45 61t29 6q21 0 37 -9q20 -11 20 -29q-134 -213 -149 -237
q-131 -217 -131 -261q0 -31 61 -31l-31 -65h-13q-58 0 -83 9q-42 16 -42 62q0 20 33 86q28 56 47 84q-209 -243 -357 -243q-48 0 -76 29t-28 77q0 116 127 274q182 227 446 330q112 44 156 44q17 0 29 -20t12 -38z" />
    <glyph glyph-name="Aacute" unicode="&#xc1;" horiz-adv-x="640" 
d="M931 987l-179 -168h-63l141 168h101zM793 687q0 -16 -20 -20q-16 -1 -33 -2q-82 -8 -216 -96q-75 -49 -136 -105q-85 -77 -145 -152q-90 -113 -90 -180q0 -46 48 -46q86 0 234 162q101 111 183 238q22 36 43 72q34 55 45 61t29 6q21 0 37 -9q20 -11 20 -29
q-134 -213 -149 -237q-131 -217 -131 -261q0 -31 61 -31l-31 -65h-13q-58 0 -83 9q-42 16 -42 62q0 20 33 86q28 56 47 84q-209 -243 -357 -243q-48 0 -76 29t-28 77q0 116 127 274q182 227 446 330q112 44 156 44q17 0 29 -20t12 -38z" />
    <glyph glyph-name="Acircumflex" unicode="&#xc2;" horiz-adv-x="640" 
d="M882 810h-56l-41 96l-123 -96h-61l155 168h101zM793 687q0 -16 -20 -20q-16 -1 -33 -2q-84 -8 -216 -96q-79 -52 -136 -105q-235 -217 -235 -332q0 -46 48 -46q86 0 234 162q101 111 183 238q22 36 43 72q34 55 45 61t29 6q21 0 37 -9q20 -11 20 -29q-280 -438 -280 -498
q0 -31 61 -31l-31 -65h-13q-58 0 -83 9q-42 16 -42 62q0 20 33 86q27 53 47 84q-209 -243 -357 -243q-48 0 -76 29t-28 77q0 116 127 274q182 227 446 330q112 44 156 44q16 0 28.5 -20.5t12.5 -37.5z" />
    <glyph glyph-name="Atilde" unicode="&#xc3;" horiz-adv-x="640" 
d="M938 939q-52 -102 -122 -102q-15 0 -44 9.5t-44 9.5q-31 0 -51 -38h-52q51 104 123 104q16 0 45 -9.5t43 -9.5q28 0 51 36h51zM793 687q0 -16 -20 -20q-16 -1 -33 -2q-84 -8 -216 -96q-79 -52 -136 -105q-235 -217 -235 -332q0 -46 48 -46q86 0 234 162q101 111 183 238
q22 36 43 72q34 55 45 61t29 6q21 0 37 -9q20 -11 20 -29q-280 -438 -280 -498q0 -31 61 -31l-31 -65h-13q-58 0 -83 9q-42 16 -42 62q0 20 33 86q28 56 47 84q-209 -243 -357 -243q-48 0 -76 29t-28 77q0 116 127 274q182 227 446 330q112 44 156 44q16 0 28.5 -20.5
t12.5 -37.5z" />
    <glyph glyph-name="Adieresis" unicode="&#xc4;" horiz-adv-x="640" 
d="M924 908q0 -27 -21 -47t-48 -20q-19 0 -31 12.5t-12 30.5q0 27 20 47t47 20q19 0 32 -12t13 -31zM755 908q0 -28 -20 -47.5t-48 -19.5q-43 0 -43 44q0 26 20.5 46t46.5 20q18 0 31 -12.5t13 -30.5zM793 687q0 -16 -20 -20q-16 -1 -33 -2q-84 -8 -216 -96
q-79 -52 -136 -105q-235 -217 -235 -332q0 -46 48 -46q86 0 234 162q101 111 183 238q22 36 43 72q34 55 45 61t29 6q21 0 37 -9q20 -11 20 -29q-280 -438 -280 -498q0 -31 61 -31l-31 -65h-13q-58 0 -83 9q-42 16 -42 62q0 20 33 86q28 56 47 84q-209 -243 -357 -243
q-48 0 -76 29t-28 77q0 116 127 274q182 227 446 330q112 44 156 44q16 0 28.5 -20.5t12.5 -37.5z" />
    <glyph glyph-name="Aring" unicode="&#xc5;" horiz-adv-x="640" 
d="M968 919q0 -61 -45 -106t-106 -45q-44 0 -71 26.5t-27 70.5q0 58 46.5 103.5t104.5 45.5q42 0 70 -26.5t28 -68.5zM793 687q0 -16 -20 -20q-16 -1 -33 -2q-84 -8 -216 -96q-79 -52 -136 -105q-235 -217 -235 -332q0 -46 48 -46q86 0 234 162q101 111 183 238q22 36 43 72
q34 55 45 61t29 6q21 0 37 -9q20 -11 20 -29q-280 -438 -280 -498q0 -31 61 -31l-31 -65h-13q-58 0 -83 9q-42 16 -42 62q0 20 33 86q28 56 47 84q-209 -243 -357 -243q-48 0 -76 29t-28 77q0 116 127 274q182 227 446 330q112 44 156 44q16 0 28.5 -20.5t12.5 -37.5z
M909 905q0 22 -15 36.5t-36 14.5q-32 0 -56 -25t-24 -57q0 -22 15.5 -35t37.5 -13q30 0 54 24.5t24 54.5z" />
    <glyph glyph-name="AE" unicode="&#xc6;" horiz-adv-x="984" 
d="M1189 680q0 -25 -46 -39q-12 27 -45 27q-67 0 -159 -79t-110 -147q-2 -8 -2 -23q59 18 97 18q52 0 52 -35q0 -31 -33 -49q-28 -15 -62 -15q-26 0 -67 13q-92 -37 -157 -87q-91 -71 -91 -146q0 -46 58 -46q44 0 99 21q36 14 82 40q39 21 42 21q12 0 23.5 -11t11.5 -23
q0 -13 -10 -24q-17 -18 -80 -48q-54 -25 -91 -37q-63 -20 -116 -20q-60 0 -96 27q-41 30 -41 88v22q0 20 19 61q17 37 33 58q-228 -256 -373 -256q-49 0 -76.5 29t-27.5 78q0 124 134 282q105 124 235 213q97 66 203.5 108.5t154.5 42.5q16 0 28.5 -21t12.5 -38
q0 -14 -21 -18l-32 -2q-80 -7 -215 -96q-79 -52 -138 -106q-81 -74 -142 -151q-90 -112 -90 -179q0 -47 48 -47q101 0 247 184q95 119 185 280q42 75 78 75q56 0 56 -28q0 -1 -1 -4q-50 -86 -147 -261q60 36 142 64q-20 30 -20 71q0 37 46 99q51 69 141 122q95 56 175 56
q86 0 86 -64z" />
    <glyph glyph-name="Ccedilla" unicode="&#xc7;" horiz-adv-x="594" 
d="M754 655q0 -81 -67 -161q-60 -72 -142 -108q-34 -15 -54 -15q-14 0 -23 19q-8 15 -8 30q0 6 1 8q2 7 57 32q64 30 97 62q51 49 51 118q0 26 -33 26q-72 0 -203 -122q-106 -99 -167 -189q-82 -121 -82 -196q0 -59 63 -59q53 0 114 40q38 26 90 76q41 40 47 40
q13 0 25 -13.5t12 -27.5q0 -35 -94 -110q-82 -65 -131 -86q-38 -17 -70 -21q-10 -1 -70 -3l-23 -40q96 0 96 -62q0 -56 -42.5 -89t-99.5 -33q-59 0 -133 27l30 51q60 -22 101 -22q25 0 45.5 13.5t20.5 37.5q0 22 -36 27q-9 1 -52 1l56 100q-72 35 -72 132q0 146 161 324
q136 152 290 235q87 47 148 47q97 0 97 -89z" />
    <glyph glyph-name="Egrave" unicode="&#xc8;" horiz-adv-x="526" 
d="M661 807h-56l-107 168h101zM713 687q0 -45 -49 -55q-9 29 -46 29q-62 0 -146 -70q-70 -58 -112 -123q-38 -59 -49 -125q27 13 55 25q32 13 58 13q51 0 51 -40q0 -38 -39 -61q-33 -19 -74 -19q-33 0 -54 5q-80 -66 -161 -161q-108 -126 -108 -191q0 -33 36 -33
q53 0 124 53q43 31 110 97q54 53 62 53q16 0 29.5 -11t13.5 -27q0 -14 -27 -46q-67 -78 -164 -142q-115 -75 -199 -75q-54 0 -86 25q-35 28 -35 80q0 108 123 240q95 102 220 178q-31 19 -31 70q0 78 71 168q66 83 163.5 141.5t174.5 58.5q33 0 57 -12q32 -15 32 -45z" />
    <glyph glyph-name="Eacute" unicode="&#xc9;" horiz-adv-x="526" 
d="M852 1001l-179 -168h-63l141 168h101zM713 687q0 -45 -49 -55q-9 29 -46 29q-62 0 -146 -70q-70 -58 -112 -123q-38 -59 -49 -125q27 13 55 25q32 13 58 13q51 0 51 -40q0 -38 -39 -61q-33 -19 -74 -19q-33 0 -54 5q-80 -66 -161 -161q-108 -126 -108 -191q0 -33 36 -33
q53 0 124 53q43 31 110 97q54 53 62 53q16 0 29.5 -11t13.5 -27q0 -14 -27 -46q-67 -79 -165 -142q-114 -75 -198 -75q-54 0 -86 25q-35 28 -35 80q0 108 123 240q95 102 220 178q-31 19 -31 70q0 78 71 168q66 83 163.5 141.5t174.5 58.5q33 0 57 -12q32 -15 32 -45z" />
    <glyph glyph-name="Ecircumflex" unicode="&#xca;" horiz-adv-x="526" 
d="M800 817h-56l-41 96l-123 -96h-61l154 168h101zM713 687q0 -47 -49 -55q-9 29 -46 29q-62 0 -146 -69q-70 -59 -112 -124q-37 -57 -48 -125q27 13 54 25q32 13 58 13q52 0 52 -40q0 -38 -40 -61q-33 -19 -74 -19q-33 0 -54 5q-80 -65 -161 -161q-107 -126 -107 -191
q0 -33 35 -33q53 0 124 53q43 31 110 97q54 53 62 53q16 0 30 -11t14 -27q0 -13 -28 -46q-66 -78 -164 -142q-115 -75 -199 -75q-54 0 -86 25q-35 28 -35 80q0 108 123 240q96 102 221 178q-32 20 -32 70q0 78 71 168q66 83 163.5 141.5t174.5 58.5q32 0 57 -12
q32 -16 32 -45z" />
    <glyph glyph-name="Edieresis" unicode="&#xcb;" horiz-adv-x="526" 
d="M836 942q0 -25 -22 -44.5t-47 -19.5q-18 0 -31 11.5t-13 29.5q0 27 20 48t47 21q46 0 46 -46zM667 942q0 -24 -21.5 -44t-46.5 -20q-19 0 -32 12t-13 31q0 26 21 46.5t47 20.5q45 0 45 -46zM713 687q0 -45 -49 -55q-9 29 -46 29q-62 0 -146 -70q-70 -58 -112 -123
q-38 -59 -49 -125q27 13 55 25q32 13 58 13q51 0 51 -40q0 -38 -39 -61q-33 -19 -74 -19q-33 0 -54 5q-80 -66 -161 -161q-108 -126 -108 -191q0 -33 36 -33q53 0 124 53q43 31 110 97q54 53 62 53q16 0 29.5 -11t13.5 -27q0 -14 -27 -46q-67 -78 -164 -142
q-115 -75 -199 -75q-54 0 -86 25q-35 28 -35 80q0 108 123 240q95 102 220 178q-31 19 -31 70q0 78 71 168q66 83 163.5 141.5t174.5 58.5q33 0 57 -12q32 -15 32 -45z" />
    <glyph glyph-name="Igrave" unicode="&#xcc;" horiz-adv-x="507" 
d="M581 827h-56l-107 168h101zM615 663q0 -56 -67 -225q-83 -210 -159 -317q-127 -180 -281 -180q-47 0 -79 16q-41 20 -41 62q0 25 12 46q14 25 36 28q15 -57 84 -57q89 0 151 88q-112 10 -112 145q0 96 56 199q49 91 127 165q117 111 195 111t78 -81zM501 635q0 18 -15 18
q-16 0 -42 -24q-60 -55 -122 -170q-65 -123 -65 -196q0 -63 59 -76q47 89 108 228q77 175 77 220z" />
    <glyph glyph-name="Iacute" unicode="&#xcd;" horiz-adv-x="507" 
d="M736 967l-179 -168h-63l141 168h101zM615 663q0 -56 -67 -225q-83 -210 -159 -317q-127 -180 -281 -180q-120 0 -120 78q0 25 12 46q14 25 36 28q15 -57 84 -57q90 0 151 88q-57 5 -86 47q-26 38 -26 98q0 95 56 199q49 92 127 165q118 111 195 111q78 0 78 -81zM501 635
q0 18 -15 18q-16 0 -42 -24q-60 -55 -122 -170q-65 -123 -65 -196q0 -63 59 -76q49 94 108 228q77 175 77 220z" />
    <glyph glyph-name="Icircumflex" unicode="&#xce;" horiz-adv-x="507" 
d="M677 795h-56l-40 96l-124 -96h-61l155 168h101zM615 663q0 -56 -67 -225q-83 -210 -159 -317q-127 -180 -281 -180q-120 0 -120 78q0 25 12 46q14 25 36 28q15 -57 84 -57q90 0 151 88q-57 5 -86 47q-26 38 -26 98q0 95 56 199q49 92 127 165q118 111 195 111
q78 0 78 -81zM501 635q0 18 -15 18q-16 0 -42 -24q-60 -55 -122 -170q-65 -123 -65 -196q0 -63 59 -76q49 94 108 228q77 175 77 220z" />
    <glyph glyph-name="Idieresis" unicode="&#xcf;" horiz-adv-x="507" 
d="M713 901q0 -23 -25 -52l-5 2q-7 0 -20 -8.5t-19 -8.5q-43 0 -43 43q0 26 20.5 46.5t46.5 20.5q19 0 32 -12t13 -31zM544 901q0 -28 -20 -47.5t-48 -19.5q-44 0 -44 44q0 26 21 46t47 20q18 0 31 -12.5t13 -30.5zM615 663q0 -56 -67 -225q-83 -210 -159 -317
q-127 -180 -281 -180q-47 0 -79 16q-41 20 -41 62q0 25 12 46q14 25 36 28q15 -57 84 -57q89 0 151 88q-112 10 -112 145q0 96 56 199q49 91 127 165q117 111 195 111t78 -81zM501 635q0 18 -15 18q-16 0 -42 -24q-60 -55 -122 -170q-65 -123 -65 -196q0 -63 59 -76
q47 89 108 228q77 175 77 220z" />
    <glyph glyph-name="Eth" unicode="&#xd0;" horiz-adv-x="784" 
d="M835 521q0 -125 -94.5 -279t-205.5 -213q-68 -36 -137 -36q-70 0 -120 28q-64 -47 -141 -47q-78 0 -78 45q0 40 43 61q33 15 78 15q22 0 66 -8q35 46 76 120l68 124h-87q-22 0 -22 13q13 21 27 43q10 11 47 12h75q85 143 153 226q-82 0 -197 -82q-110 -79 -186 -185
q-81 -114 -71 -195l-14 -7h-11q-8 -1 -12 -1q-39 0 -39 50q0 40 32 108q26 53 58 99q94 134 217 208q133 81 285 81q21 33 34 40.5t48 7.5q33 0 33 -17q-5 -12 -32 -49q107 -35 107 -162zM736 543q0 58 -57 73q-81 -111 -137 -217q-9 0 30 1q27 1 42 -1q23 -2 24 -8
q-1 -8 -22 -41q-12 -18 -53 -20q26 1 -60 1q-78 -139 -168 -255q24 -3 47 -3q47 0 89 22q83 43 174 197.5t91 250.5z" />
    <glyph glyph-name="Ntilde" unicode="&#xd1;" horiz-adv-x="828" 
d="M902 921q-52 -102 -122 -102q-16 0 -46 9.5t-45 9.5q-29 0 -48 -38h-52q52 104 123 104q16 0 45 -9.5t43 -9.5q30 0 51 36h51zM954 673q0 -58 -133 -295.5t-133 -275.5q0 -44 73 -44l-32 -65h-17q-144 0 -144 97q0 50 74 187q51 88 101 175q18 33 54 100q22 41 22 67
q0 16 -18 16q-51 0 -204 -175q-109 -125 -183 -229q-60 -85 -128 -201q-6 -10 -12 -20.5t-17 -14.5q-22 -9 -55 -9q-22 0 -28 2q-13 5 -13 22q0 5 78 129q94 150 143 244q78 146 78 207q0 45 -45 45q-51 0 -103 -69q-46 -62 -53 -118l-6 -48q-2 -16 5 -49q-17 -11 -40 -11
q-60 0 -60 73q0 112 92 218q96 109 205 109q53 0 82.5 -30t29.5 -83q0 -66 -66 -198q243 315 374 315q34 0 56.5 -19t22.5 -52z" />
    <glyph glyph-name="Ograve" unicode="&#xd2;" horiz-adv-x="604" 
d="M671 824h-57l-107 168h101zM779 585q-42 -46 -119 -94q-36 -129 -120 -251q-88 -128 -194 -197q-79 -52 -145 -52q-71 0 -109 46q-35 42 -35 115q0 143 109 314q63 99 138 167q100 90 189 90q52 22 85 22q102 0 102 -124q0 -6 -1 -17.5t-1 -17.5q45 34 71 59zM591 603
q0 64 -55 64q-34 0 -55 -25t-21 -59q0 -29 21 -44q18 -15 47 -15q19 0 52 14q11 40 11 65zM544 447q-33 -11 -68 -11q-45 0 -69 31q-23 28 -23 73q0 7 5 47q-84 -87 -141 -189q-70 -124 -70 -222q0 -79 60 -79q78 0 180 139q67 90 126 211z" />
    <glyph glyph-name="Oacute" unicode="&#xd3;" horiz-adv-x="604" 
d="M781 1000l-179 -168h-62l140 168h101zM779 585q-42 -46 -119 -94q-36 -129 -120 -251q-88 -128 -194 -197q-79 -52 -145 -52q-71 0 -109 46q-35 42 -35 115q0 143 109 314q63 99 138 167q100 90 189 90q52 22 85 22q102 0 102 -124q0 -6 -1 -17.5t-1 -17.5q45 34 71 59z
M591 603q0 64 -55 64q-34 0 -55 -25t-21 -59q0 -29 21 -44q18 -15 47 -15q19 0 52 14q11 40 11 65zM544 447q-33 -11 -68 -11q-45 0 -69 31q-23 28 -23 73q0 7 5 47q-84 -87 -141 -189q-70 -124 -70 -222q0 -79 60 -79q78 0 180 139q67 90 126 211z" />
    <glyph glyph-name="Ocircumflex" unicode="&#xd4;" horiz-adv-x="604" 
d="M738 819h-56l-41 96l-123 -96h-61l155 168h101zM779 585q-42 -46 -119 -94q-36 -129 -120 -251q-88 -128 -194 -197q-79 -52 -145 -52q-71 0 -109 46q-35 42 -35 115q0 143 109 314q63 99 138 167q100 90 189 90q52 22 85 22q102 0 102 -124q0 -6 -1 -17.5t-1 -17.5
q45 34 71 59zM591 603q0 64 -55 64q-34 0 -55 -25t-21 -59q0 -29 21 -44q18 -15 47 -15q19 0 52 14q11 40 11 65zM544 447q-33 -11 -68 -11q-45 0 -69 31q-23 28 -23 73q0 7 5 47q-84 -87 -141 -189q-70 -124 -70 -222q0 -79 60 -79q78 0 180 139q67 90 126 211z" />
    <glyph glyph-name="Otilde" unicode="&#xd5;" horiz-adv-x="604" 
d="M819 970q-49 -102 -122 -102q-15 0 -44 9.5t-44 9.5q-31 0 -51 -38h-52q27 50 48 70q32 34 75 34q16 0 45 -9.5t43 -9.5q29 0 51 36h51zM779 585q-42 -46 -119 -94q-36 -129 -120 -251q-88 -128 -194 -197q-79 -52 -145 -52q-71 0 -109 46q-35 42 -35 115q0 143 109 314
q63 99 138 167q100 90 189 90q52 22 85 22q102 0 102 -124q0 -6 -1 -17.5t-1 -17.5q45 34 71 59zM591 603q0 64 -55 64q-34 0 -55 -25t-21 -59q0 -29 21 -44q18 -15 47 -15q19 0 52 14q11 40 11 65zM544 447q-33 -11 -68 -11q-45 0 -69 31q-23 28 -23 73q0 7 5 47
q-84 -87 -141 -189q-70 -124 -70 -222q0 -79 60 -79q78 0 180 139q67 90 126 211z" />
    <glyph glyph-name="Odieresis" unicode="&#xd6;" horiz-adv-x="604" 
d="M758 912q0 -27 -21 -47t-48 -20q-19 0 -31.5 12t-12.5 31q0 26 21 46.5t46 20.5q19 0 32.5 -12t13.5 -31zM589 912q0 -28 -20 -47.5t-48 -19.5q-44 0 -44 44q0 25 21 45.5t46 20.5q18 0 31.5 -12.5t13.5 -30.5zM779 585q-42 -46 -119 -94q-36 -129 -120 -251
q-88 -128 -194 -197q-79 -52 -145 -52q-71 0 -109 46q-35 42 -35 115q0 143 109 314q63 99 138 167q100 90 189 90q52 22 85 22q102 0 102 -124q0 -6 -1 -17.5t-1 -17.5q45 34 71 59zM591 603q0 64 -55 64q-34 0 -55 -25t-21 -59q0 -29 21 -44q18 -15 47 -15q19 0 52 14
q11 40 11 65zM544 447q-33 -11 -68 -11q-45 0 -69 31q-23 28 -23 73q0 7 5 47q-84 -87 -141 -189q-70 -124 -70 -222q0 -79 60 -79q78 0 180 139q67 90 126 211z" />
    <glyph glyph-name="multiply" unicode="&#xd7;" horiz-adv-x="808" 
d="M791 513l-264 -221l171 -219l-69 -57l-171 220l-264 -220l-42 57l263 219l-170 221l67 55l170 -219l265 219z" />
    <glyph glyph-name="Oslash" unicode="&#xd8;" horiz-adv-x="604" 
d="M782 780q-3 -11 -105 -113q4 -24 4 -56q0 -25 -8 -61q-24 -107 -63 -190q-60 -128 -167 -237q-129 -132 -242 -132q-75 0 -102 35l-64 -70q-15 -16 -29 -19q-5 -1 -36 -1q-13 0 -18 7q2 9 55 63q31 32 63 64q-15 32 -15 67q0 134 93 298q90 162 204 238q22 15 46 26
q21 10 48 15q42 8 47 9l43.5 14.5t42.5 7.5q42 0 73 -30q25 29 49 58q20 18 64 18q6 0 12 -3zM583 641q-17 26 -50 26q-71 0 -158 -92q-77 -81 -135.5 -196t-61.5 -186zM583 562l-395 -437q18 -28 49 -28q72 0 171 127q71 90 122 193q32 66 53 145z" />
    <glyph glyph-name="Ugrave" unicode="&#xd9;" horiz-adv-x="901" 
d="M808 784h-56l-107 168h101zM1027 710q0 -6 -11 -27q-8 -13 -15 -27l-168 -365q-77 -167 -77 -195q0 -38 78 -38l-31 -65q-72 0 -107 11q-63 19 -63 74q0 60 136 303q-86 -113 -128 -163q-76 -90 -145 -146q-100 -81 -196 -81q-75 0 -75 62q0 29 21 71q19 34 37 67
l153 267q63 110 63 142q0 43 -52 43q-65 0 -125 -77q-56 -72 -56 -140q0 -26 13 -35q-3 -24 -48 -24q-60 0 -60 88q0 3 4 20q26 109 118 187t203 78q56 0 90 -25q38 -29 38 -83q0 -61 -65 -176l-161 -286q-3 -4 -15 -31q-10 -21 -10 -28q0 -6 3 -9q12 -4 15 -4q46 0 150 102
q202 198 359 501q23 44 50 44q77 0 77 -35z" />
    <glyph glyph-name="Uacute" unicode="&#xda;" horiz-adv-x="901" 
d="M978 961l-179 -168h-63l141 168h101zM1027 710q0 -6 -11 -27q-8 -13 -15 -27l-168 -365q-77 -167 -77 -195q0 -38 78 -38l-31 -65q-72 0 -107 11q-63 19 -63 74q0 60 136 303q-86 -113 -128 -163q-76 -90 -145 -146q-100 -81 -196 -81q-75 0 -75 62q0 29 21 71
q19 34 37 67l153 267q63 110 63 142q0 43 -52 43q-65 0 -125 -77q-56 -72 -56 -140q0 -26 13 -35q-3 -24 -48 -24q-60 0 -60 88q0 3 4 20q26 109 118 187t203 78q56 0 90 -25q38 -29 38 -83q0 -61 -65 -176l-161 -286q-3 -4 -15 -31q-10 -21 -10 -28q0 -6 3 -9q12 -4 15 -4
q46 0 150 102q202 198 359 501q23 44 50 44q77 0 77 -35z" />
    <glyph glyph-name="Ucircumflex" unicode="&#xdb;" horiz-adv-x="901" 
d="M909 810h-57l-40 96l-124 -96h-62l156 168h101zM1027 710q0 -6 -11 -27q-8 -13 -15 -27l-168 -365q-77 -167 -77 -195q0 -38 78 -38l-31 -65q-72 0 -107 11q-63 19 -63 74q0 60 136 303q-86 -113 -128 -163q-76 -90 -145 -146q-100 -81 -196 -81q-75 0 -75 62q0 29 21 71
q19 34 37 67l153 267q63 110 63 142q0 43 -52 43q-65 0 -125 -77q-56 -72 -56 -140q0 -26 13 -35q-3 -24 -48 -24q-60 0 -60 88q0 3 4 20q26 109 118 187t203 78q56 0 90 -25q38 -29 38 -83q0 -61 -65 -176l-161 -286q-3 -4 -15 -31q-10 -21 -10 -28q0 -6 3 -9q12 -4 15 -4
q46 0 150 102q202 198 359 501q23 44 50 44q77 0 77 -35z" />
    <glyph glyph-name="Udieresis" unicode="&#xdc;" horiz-adv-x="901" 
d="M927 872q0 -28 -20.5 -47.5t-48.5 -19.5q-42 0 -42 43q0 27 19.5 47t46.5 20q18 0 31.5 -12.5t13.5 -30.5zM758 872q0 -28 -20 -47.5t-48 -19.5q-43 0 -43 44q0 26 20.5 46t46.5 20q18 0 31 -12.5t13 -30.5zM1027 710q0 -6 -11 -27q-8 -13 -15 -27l-168 -365
q-77 -167 -77 -195q0 -38 78 -38l-31 -65q-72 0 -107 11q-63 19 -63 74q0 60 136 303q-86 -113 -128 -163q-76 -90 -145 -146q-100 -81 -196 -81q-75 0 -75 62q0 29 21 71q19 34 37 67l153 267q63 110 63 142q0 43 -52 43q-65 0 -125 -77q-56 -72 -56 -140q0 -26 13 -35
q-3 -24 -48 -24q-60 0 -60 88q0 3 4 20q26 109 118 187t203 78q56 0 90 -25q38 -29 38 -83q0 -61 -65 -176l-161 -286q-3 -4 -15 -31q-10 -21 -10 -28q0 -6 3 -9q12 -4 15 -4q46 0 150 102q202 198 359 501q23 44 50 44q77 0 77 -35z" />
    <glyph glyph-name="Yacute" unicode="&#xdd;" horiz-adv-x="865" 
d="M981 957l-179 -168h-63l141 168h101zM1036 708q0 -2 -16 -35q-192 -396 -308 -612q25 -5 50 -5q15 0 30 2l-31 -65q-24 -2 -38 -2q-9 0 -27 3t-25 3q-159 -238 -289 -238q-57 0 -57 42q0 58 93 124q65 46 147 81q106 158 185 340q-273 -343 -446 -343q-78 0 -78 64
q0 53 134 271.5t134 260.5q0 45 -48 45q-67 0 -130 -87q-59 -81 -59 -152q0 -26 14 -35q-6 -24 -47 -24q-61 0 -61 72q0 112 98.5 214.5t209.5 102.5q130 0 130 -111q0 -84 -106 -262l-104 -175q-28 -47 -28 -68q0 -3 2 -9q7 -5 24 -5q67 0 202 138q91 93 170 200
q63 85 127 197q60 105 78 105q20 0 43 -9q27 -12 27 -28z" />
    <glyph glyph-name="Thorn" unicode="&#xde;" horiz-adv-x="700" 
d="M732 450q0 -125 -106 -265q-113 -148 -233 -148q-41 0 -102 11q-57 -95 -99 -141q-72 -78 -145 -78q-91 0 -91 118q0 28 7 61q66 308 379 503q6 26 7 78t6 76q4 20 41 50t52 30q14 0 14 -32q0 -24 -3.5 -73.5t-3.5 -74.5q62 29 121 29q156 0 156 -144zM597 433
q0 68 -61 68q-35 0 -98 -34q-33 -163 -106 -342q12 -3 36 -3q94 0 166 112q63 99 63 199zM316 399q-92 -72 -165 -185q-82 -129 -82 -230q0 -32 22 -32q42 0 109 127q62 118 116 320z" />
    <glyph glyph-name="germandbls" unicode="&#xdf;" horiz-adv-x="543" 
d="M591 657q0 -126 -159 -276q61 -58 61 -138q0 -100 -82 -174q16 -11 67 -11l-33 -65h-13q-56 0 -95 22q-63 -24 -115 -24q-75 0 -75 46q0 22 16.5 38.5t39.5 16.5q31 0 43 -34q20 0 40 12q98 59 98 210q0 27 -17 63q-17 -7 -38 -7q-10 0 -17.5 9.5t-7.5 19.5q0 52 54 52
q12 0 36 -11q44 47 78 103q41 70 41 118q0 33 -26 33q-54 0 -189 -239q-82 -145 -148 -288q-53 -114 -66 -128t-61 -14q-19 0 -24.5 3t-5.5 13q0 -4 7 17q-44 -25 -98 -31l31 65q55 0 110 76q25 35 70 124q95 189 162 287q133 194 237 194q79 0 79 -82z" />
    <glyph glyph-name="agrave" unicode="&#xe0;" horiz-adv-x="529" 
d="M604 484h-56l-107 168h101zM593 419l-104 -156q-85 -135 -85 -175q0 -30 59 -30l-31 -65h-9q-52 0 -76 6q-46 12 -46 49q0 40 47 119q-128 -176 -244 -176q-53 0 -72 30q-61 -28 -130 -28l32 65q34 4 46 7q22 4 43 15q-1 115 123 239.5t239 124.5q56 0 87 -38
q9 17 19.5 34.5t28.5 17.5q73 0 73 -39zM436 348q-29 20 -47 20q-67 0 -160.5 -100.5t-93.5 -168.5q0 -26 26 -26q58 0 154 111q61 71 121 164z" />
    <glyph glyph-name="aacute" unicode="&#xe1;" horiz-adv-x="529" 
d="M707 652l-179 -168h-63l141 168h101zM593 419l-104 -156q-85 -135 -85 -175q0 -30 59 -30l-31 -65h-9q-52 0 -76 6q-46 12 -46 49q0 34 47 119q-128 -176 -244 -176q-53 0 -72 30q-61 -28 -130 -28l32 65q34 4 46 7q22 4 43 15q-1 115 123 239.5t239 124.5q56 0 87 -38
q9 17 19.5 34.5t28.5 17.5q73 0 73 -39zM436 348q-29 20 -47 20q-67 0 -160.5 -100.5t-93.5 -168.5q0 -26 26 -26q58 0 154 111q61 71 121 164z" />
    <glyph glyph-name="acircumflex" unicode="&#xe2;" horiz-adv-x="529" 
d="M670 484h-56l-41 97l-123 -97h-62l156 168h101zM593 419l-104 -156q-85 -135 -85 -175q0 -30 59 -30l-31 -65h-9q-52 0 -76 6q-46 12 -46 49q0 40 47 119q-128 -176 -244 -176q-53 0 -72 30q-61 -28 -130 -28l32 65q34 4 46 7q22 4 43 15q-1 115 123 239.5t239 124.5
q56 0 87 -38q9 17 19.5 34.5t28.5 17.5q73 0 73 -39zM436 348q-29 20 -47 20q-67 0 -160.5 -100.5t-93.5 -168.5q0 -26 26 -26q58 0 154 111q61 71 121 164z" />
    <glyph glyph-name="atilde" unicode="&#xe3;" horiz-adv-x="529" 
d="M722 625q-51 -102 -122 -102q-15 0 -44 9.5t-44 9.5q-31 0 -51 -38h-52q57 104 123 104q16 0 45 -9.5t43 -9.5q28 0 51 36h51zM593 419q-52 -78 -104 -157q-85 -134 -85 -174q0 -30 59 -30l-31 -65h-9q-52 0 -76 6q-46 12 -46 49q0 34 47 119q-128 -176 -244 -176
q-53 0 -72 30q-61 -28 -130 -28l32 65q34 4 46 7q23 4 43 15q-1 115 122.5 239.5t239.5 124.5q56 0 87 -38q9 17 19.5 34.5t28.5 17.5q73 0 73 -39zM437 348q-31 20 -48 20q-67 0 -160.5 -100.5t-93.5 -168.5q0 -26 26 -26q95 0 276 275z" />
    <glyph glyph-name="adieresis" unicode="&#xe4;" horiz-adv-x="529" 
d="M706 571q0 -26 -21.5 -45t-47.5 -19q-44 0 -44 43q0 26 20.5 46.5t46.5 20.5q46 0 46 -46zM537 571q0 -26 -20.5 -45t-47.5 -19q-45 0 -45 44q0 26 21.5 46t46.5 20q45 0 45 -46zM593 419l-104 -156q-85 -135 -85 -175q0 -30 59 -30l-31 -65h-9q-52 0 -76 6
q-46 12 -46 49q0 34 47 119q-128 -176 -244 -176q-53 0 -72 30q-61 -28 -130 -28l32 65q34 4 46 7q22 4 43 15q-1 115 123 239.5t239 124.5q56 0 87 -38q9 17 19.5 34.5t28.5 17.5q73 0 73 -39zM436 348q-29 20 -47 20q-67 0 -160.5 -100.5t-93.5 -168.5q0 -26 26 -26
q58 0 154 111q61 71 121 164z" />
    <glyph glyph-name="aring" unicode="&#xe5;" horiz-adv-x="529" 
d="M627 630q0 -57 -48 -103.5t-105 -46.5q-42 0 -70 27.5t-28 69.5q0 59 46.5 105.5t104.5 46.5q43 0 71.5 -28t28.5 -71zM593 419l-104 -156q-85 -135 -85 -175q0 -30 59 -30l-31 -65h-9q-52 0 -76 6q-46 12 -46 49q0 40 47 119q-128 -176 -244 -176q-53 0 -72 30
q-61 -28 -130 -28l32 65q34 4 46 7q22 4 43 15q-1 115 123 239.5t239 124.5q56 0 87 -38q9 17 19.5 34.5t28.5 17.5q73 0 73 -39zM567 619q0 22 -15.5 36t-37.5 14q-31 0 -55 -24.5t-24 -55.5q0 -22 15 -35.5t37 -13.5q31 0 55.5 24t24.5 55zM436 348q-29 20 -47 20
q-67 0 -160.5 -100.5t-93.5 -168.5q0 -26 26 -26q58 0 154 111q61 71 121 164z" />
    <glyph glyph-name="ae" unicode="&#xe6;" horiz-adv-x="672" 
d="M711 367q0 -129 -206 -275q30 -34 100 -34l-31 -65h-12q-88 0 -144 40q-63 45 -63 130q-120 -172 -251 -172q-48 0 -70 30q-70 -28 -132 -28l32 65q58 7 91 22q0 16 4 44q14 99 120 210q110 115 207 115q47 0 76 -34q8 36 70 36q15 0 17 -1q7 -2 7 -14q-6 -19 -10 -27
q65 40 111 40q84 0 84 -82zM635 340q0 29 -31 29q-45 0 -88 -57q-37 -49 -46 -99q-2 -11 -2 -39q0 -15 10 -32q52 29 100 85q57 64 57 113zM411 358q-19 14 -43 14q-21 0 -33 -4q-56 -18 -131.5 -113.5t-75.5 -152.5q0 -33 34 -33q68 0 150 115q57 78 99 174z" />
    <glyph glyph-name="ccedilla" unicode="&#xe7;" horiz-adv-x="375" 
d="M338 -107q0 -56 -42.5 -89t-99.5 -33q-55 0 -134 25l31 53q64 -22 101 -22q25 0 45.5 13.5t20.5 37.5q0 22 -36 27q-8 1 -52 1l49 86q-102 8 -146 52q-79 -51 -173 -51l32 65q58 0 108 29q-8 30 -8 44q0 114 95.5 216t208.5 102q90 0 90 -66q0 -26 -18.5 -50t-44.5 -24
q-5 0 -11 2q-1 6 0 14q1 11 1 14q0 26 -33 26q-63 0 -116 -75q-50 -70 -50 -136q0 -96 153 -96l-32 -65q-8 -2 -14 -2l-22 -36q97 0 97 -62z" />
    <glyph glyph-name="egrave" unicode="&#xe8;" horiz-adv-x="361" 
d="M319 484h-56l-107 168h101zM400 367q0 -71 -72 -157q-57 -67 -133 -118q29 -34 99 -34l-31 -65h-13q-106 0 -153 48q-116 -48 -195 -48l32 65q59 4 120 27q-15 26 -15 62q0 113 80 205q83 97 194 97q87 0 87 -82zM324 341q0 28 -32 28q-50 0 -95 -69q-41 -64 -41 -118
q0 -21 11 -40q51 30 100 86q57 65 57 113z" />
    <glyph glyph-name="eacute" unicode="&#xe9;" horiz-adv-x="361" 
d="M422 652l-179 -168h-63l141 168h101zM400 367q0 -70 -72 -156q-58 -68 -133 -119q29 -34 99 -34l-31 -65h-13q-106 0 -153 48q-116 -48 -195 -48l32 65q61 4 120 27q-15 29 -15 62q0 113 80 205q83 97 194 97q87 0 87 -82zM324 341q0 28 -32 28q-50 0 -95 -69
q-41 -64 -41 -118q0 -21 11 -40q51 30 100 86q57 65 57 113z" />
    <glyph glyph-name="ecircumflex" unicode="&#xea;" horiz-adv-x="361" 
d="M385 484h-56l-41 97l-123 -97h-62l156 168h101zM400 367q0 -71 -72 -157q-57 -67 -133 -118q29 -34 99 -34l-31 -65h-13q-106 0 -153 48q-116 -48 -195 -48l32 65q59 4 120 27q-15 26 -15 62q0 113 80 205q83 97 194 97q87 0 87 -82zM324 341q0 28 -32 28q-50 0 -95 -69
q-41 -64 -41 -118q0 -21 11 -40q51 30 100 86q57 65 57 113z" />
    <glyph glyph-name="edieresis" unicode="&#xeb;" horiz-adv-x="361" 
d="M421 571q0 -26 -21.5 -45t-47.5 -19q-44 0 -44 43q0 26 20.5 46.5t46.5 20.5q46 0 46 -46zM252 571q0 -26 -21 -45t-47 -19q-19 0 -32 12.5t-13 31.5q0 25 21.5 45.5t46.5 20.5q45 0 45 -46zM400 367q0 -71 -72 -157q-57 -67 -133 -118q29 -34 99 -34l-31 -65h-13
q-106 0 -153 48q-116 -48 -195 -48l32 65q59 4 120 27q-15 26 -15 62q0 113 80 205q83 97 194 97q87 0 87 -82zM324 341q0 28 -32 28q-50 0 -95 -70q-41 -64 -41 -117q0 -21 11 -40q51 30 100 86q57 65 57 113z" />
    <glyph glyph-name="igrave" unicode="&#xec;" horiz-adv-x="277" 
d="M340 547h-56l-107 168h101zM326 426q0 -5 -88 -160.5t-88 -177.5q0 -30 60 -30l-30 -65h-17q-114 0 -114 68q-72 -68 -147 -68l31 65q70 0 140 101q36 53 86 161q34 74 46 89q31 39 87 39q34 0 34 -22z" />
    <glyph glyph-name="iacute" unicode="&#xed;" horiz-adv-x="277" 
d="M470 743l-179 -168h-62l140 168h101zM326 426q0 -5 -88 -160.5t-88 -177.5q0 -30 60 -30l-30 -65h-17q-114 0 -114 68q-72 -68 -147 -68l31 65q70 0 140 101q36 53 86 161q34 74 46 89q31 39 87 39q34 0 34 -22z" />
    <glyph glyph-name="icircumflex" unicode="&#xee;" horiz-adv-x="277" 
d="M409 526h-55l-42 97l-123 -97h-62l156 168h101zM326 426q0 -5 -88 -160.5t-88 -177.5q0 -30 60 -30l-30 -65h-17q-114 0 -114 68q-72 -68 -147 -68l31 65q70 0 140 101q36 53 86 161q34 74 46 89q31 39 87 39q34 0 34 -22z" />
    <glyph glyph-name="idieresis" unicode="&#xef;" horiz-adv-x="277" 
d="M481 585q0 -25 -22 -44.5t-47 -19.5q-18 0 -31 11.5t-13 29.5q0 27 20 48t47 21q46 0 46 -46zM312 585q0 -24 -21.5 -44t-46.5 -20q-19 0 -32 12t-13 31q0 26 21 46.5t47 20.5q45 0 45 -46zM326 426q0 -6 -88 -161t-88 -177q0 -30 60 -30l-30 -65h-17q-114 0 -114 68
q-72 -68 -147 -68l31 65q70 0 140 101q37 54 86 161q34 74 46 89q31 39 87 39q34 0 34 -22z" />
    <glyph glyph-name="eth" unicode="&#xf0;" horiz-adv-x="431" 
d="M547 637q-4 -40 -22 -52q-5 -3 -59 -19v-107q0 -4 -7 -56q-24 -178 -132 -304q-93 -108 -187 -108q-66 0 -93 36q-81 -34 -145 -34l32 65q34 4 46 7q23 4 43 15q-2 11 -2 32q0 105 104.5 221t207.5 116q19 0 19 -17q0 -8 -30 -34l-43 -37q-48 -41 -99 -122
q-57 -90 -57 -144q0 -34 35 -34q56 0 120 82q43 55 73 139t30 154v103q-35 -13 -105 -37q-11 2 -12 8q3 29 10 40.5t31 19.5l70 22q0 26 -10 67q-8 32 -16 65q5 13 15 12q57 -20 72 -40q10 -14 24 -76q26 10 78 26l8 -5z" />
    <glyph glyph-name="ntilde" unicode="&#xf1;" horiz-adv-x="515" 
d="M601 625q-53 -102 -122 -102q-16 0 -46 9.5t-45 9.5q-27 0 -48 -38h-52q27 49 48 70q33 34 75 34q16 0 45 -9.5t43 -9.5q28 0 51 36h51zM546 399q0 -36 -78 -162t-78 -153q0 -26 58 -26l-31 -65h-11q-134 0 -134 70q0 33 40 100q29 49 59 98q2 3 22 34q14 21 17 36
q-1 11 -13 11q-28 0 -102 -71q-83 -79 -169 -225q-32 -55 -90 -55q-31 0 -31 12q0 15 19 37q-60 -47 -122 -47l31 65q75 0 140 103q14 22 95 191q49 103 86 103q64 0 64 -20q0 -1 -59 -104q-62 -108 -69 -121q191 233 304 233q52 0 52 -44z" />
    <glyph glyph-name="ograve" unicode="&#xf2;" horiz-adv-x="431" 
d="M394 484h-57l-107 168h101zM447 362q0 -106 -99 -235q-105 -136 -208 -136q-66 0 -93 36q-81 -34 -145 -34l32 65q34 4 46 7q22 4 43 15q-2 22 -2 32q0 105 104 221t208 116q20 0 20 -17q0 -8 -74 -71q-48 -41 -99 -122q-56 -90 -56 -144q0 -34 34 -34q47 0 109.5 70
t83.5 160q-39 5 -39 41q0 35 25.5 63.5t59.5 28.5q50 0 50 -62z" />
    <glyph glyph-name="oacute" unicode="&#xf3;" horiz-adv-x="431" 
d="M496 652l-179 -168h-63l141 168h101zM447 362q0 -12 -5 -36q-13 -62 -41 -116q-42 -81 -106 -143q-80 -76 -155 -76q-66 0 -93 36q-81 -34 -145 -34l32 65q33 4 46 7q21 4 43 15q-2 11 -2 32q0 105 104 221t208 116q19 0 19 -17q0 -8 -30 -34l-43 -37q-49 -42 -99 -122
q-57 -90 -57 -144q0 -34 35 -34q48 0 109.5 71t82.5 159q-38 5 -38 41q0 35 25.5 63.5t59.5 28.5q50 0 50 -62z" />
    <glyph glyph-name="ocircumflex" unicode="&#xf4;" horiz-adv-x="431" 
d="M459 484h-56l-41 97l-123 -97h-62l156 168h101zM447 362q0 -12 -5 -36q-13 -62 -41 -116q-42 -81 -106 -143q-80 -76 -155 -76q-66 0 -93 36q-81 -34 -145 -34l32 65q33 4 46 7q21 4 43 15q-2 11 -2 32q0 105 104 221t208 116q19 0 19 -17q0 -8 -30 -34l-43 -37
q-49 -42 -99 -122q-57 -90 -57 -144q0 -34 35 -34q48 0 109.5 71t82.5 159q-38 5 -38 41q0 35 25.5 63.5t59.5 28.5q50 0 50 -62z" />
    <glyph glyph-name="otilde" unicode="&#xf5;" horiz-adv-x="431" 
d="M511 625q-51 -102 -122 -102q-15 0 -44 9.5t-44 9.5q-31 0 -51 -38h-52q27 49 48 70q33 34 75 34q16 0 45 -9.5t43 -9.5q28 0 51 36h51zM447 362q0 -106 -99 -235q-105 -136 -208 -136q-66 0 -93 36q-81 -34 -145 -34l32 65q34 4 46 7q22 4 43 15q-2 22 -2 32
q0 105 104 221t208 116q20 0 20 -17q0 -8 -74 -71q-48 -41 -99 -122q-56 -90 -56 -144q0 -34 34 -34q47 0 109.5 70t83.5 160q-39 5 -39 41q0 35 25.5 63.5t59.5 28.5q50 0 50 -62z" />
    <glyph glyph-name="odieresis" unicode="&#xf6;" horiz-adv-x="431" 
d="M495 571q0 -26 -21.5 -45t-47.5 -19q-44 0 -44 43q0 26 20.5 46.5t46.5 20.5q46 0 46 -46zM326 571q0 -26 -21 -45t-47 -19q-19 0 -32 12.5t-13 31.5q0 25 21.5 45.5t46.5 20.5q19 0 32 -13t13 -33zM447 362q0 -12 -5 -36q-13 -62 -41 -116q-42 -81 -106 -143
q-80 -76 -155 -76q-66 0 -93 36q-81 -34 -145 -34l32 65q33 4 46 7q21 4 43 15q-2 11 -2 32q0 105 104 221t208 116q19 0 19 -17q0 -8 -30 -34l-43 -37q-49 -42 -99 -122q-57 -90 -57 -144q0 -34 35 -34q48 0 109.5 71t82.5 159q-38 5 -38 41q0 35 25.5 63.5t59.5 28.5
q50 0 50 -62z" />
    <glyph glyph-name="divide" unicode="&#xf7;" horiz-adv-x="808" 
d="M572 488q0 -31 -24.5 -55t-56.5 -24q-23 0 -38 14t-15 37q0 31 24.5 55.5t56.5 24.5q23 0 38 -14.5t15 -37.5zM759 332l-17 -80h-568l17 80h568zM494 126q0 -33 -23.5 -57t-56.5 -24q-24 0 -39 14t-15 37q0 29 26 54.5t55 25.5q21 0 37 -14.5t16 -35.5z" />
    <glyph glyph-name="oslash" unicode="&#xf8;" horiz-adv-x="431" 
d="M543 474q-7 -14 -97 -95q1 -8 1 -23q0 -2 -5 -27q-23 -112 -105 -217q-95 -121 -197 -121q-46 0 -80 20l-60 -62q-12 -12 -26 -15q-6 -1 -32 -1q-7 0 -10 2l-2 5q6 12 47 52l54 52q-13 22 -13 42t9 69q17 96 112 192q99 102 193 102q20 0 20 -17q0 -3 -48 -46
q-52 -47 -58 -54q-104 -119 -122 -207l203 197q-7 19 -7 24q0 28 22 52t49 24q14 0 29 -5q26 25 52 51q18 14 60 14q3 0 9 -2zM354 298l-233 -223q9 -20 34 -20q58 0 131 94q71 91 68 149z" />
    <glyph glyph-name="ugrave" unicode="&#xf9;" horiz-adv-x="515" 
d="M546 484h-56l-107 168h101zM569 417q0 4 -86.5 -139t-86.5 -193q0 -16 19 -22q6 -2 33 -5l-31 -65h-9q-107 0 -107 52q0 36 46 123q-68 -77 -104 -109q-75 -66 -131 -66q-64 0 -70 43q-53 -33 -140 -43l32 65q55 0 112 31q-6 35 137 289q43 77 65 77q24 0 51 -9
q35 -11 35 -29q0 -1 -86 -132q-88 -135 -98 -190q4 -19 23 -19q56 0 148 126q64 89 111 182q34 68 66 68q23 0 43 -7q28 -9 28 -28z" />
    <glyph glyph-name="uacute" unicode="&#xfa;" horiz-adv-x="515" 
d="M649 652l-179 -168h-63l141 168h101zM569 417q-1 -3 -34 -55q-140 -222 -140 -277q0 -16 19 -22q7 -2 34 -5l-31 -65h-9q-107 0 -107 52q0 36 46 123q-68 -77 -104 -109q-75 -66 -131 -66q-64 0 -70 43q-52 -33 -140 -43l32 65q54 0 112 31q-6 35 137 289q43 77 65 77
q24 0 51 -9q35 -11 35 -29q0 -2 -86 -132q-88 -135 -98 -190q4 -19 23 -19q56 0 148 126q64 89 111 182q34 68 66 68q23 0 43 -7q28 -9 28 -28z" />
    <glyph glyph-name="ucircumflex" unicode="&#xfb;" horiz-adv-x="515" 
d="M612 484h-56l-41 97l-123 -97h-61l155 168h101zM569 417q0 4 -86.5 -139t-86.5 -193q0 -16 19 -22q6 -2 33 -5l-31 -65h-9q-107 0 -107 52q0 36 46 123q-68 -77 -104 -109q-75 -66 -131 -66q-64 0 -70 43q-53 -33 -140 -43l32 65q55 0 112 31q-6 35 137 289q43 77 65 77
q24 0 51 -9q35 -11 35 -29q0 -1 -86 -132q-88 -135 -98 -190q4 -19 23 -19q56 0 148 126q64 89 111 182q34 68 66 68q23 0 43 -7q28 -9 28 -28z" />
    <glyph glyph-name="udieresis" unicode="&#xfc;" horiz-adv-x="515" 
d="M648 571q0 -26 -21.5 -45t-47.5 -19q-44 0 -44 43q0 26 20.5 46.5t46.5 20.5q46 0 46 -46zM479 571q0 -26 -21 -45t-47 -19q-45 0 -45 44q0 26 21.5 46t46.5 20q45 0 45 -46zM569 417q-1 -3 -34 -55q-140 -222 -140 -277q0 -16 19 -22q7 -2 34 -5l-31 -65h-9
q-107 0 -107 52q0 36 46 123q-68 -77 -104 -109q-75 -66 -131 -66q-64 0 -70 43q-52 -33 -140 -43l32 65q54 0 112 31q-6 35 137 289q43 77 65 77q24 0 51 -9q35 -11 35 -29q0 -2 -86 -132q-88 -135 -98 -190q4 -19 23 -19q56 0 148 126q64 89 111 182q34 68 66 68
q23 0 43 -7q28 -9 28 -28z" />
    <glyph glyph-name="yacute" unicode="&#xfd;" horiz-adv-x="528" 
d="M598 652l-179 -168h-63l141 168h101zM569 410q0 -5 -103 -184q-89 -154 -105 -181q26 6 100 13l-31 -65q-72 -6 -112 -17q-109 -227 -212 -227q-43 0 -43 35q0 51 57 103q46 43 103 68q44 71 127 215q-135 -179 -238 -179q-21 0 -38 10q-20 12 -24 31q-78 -32 -148 -39
l32 65q55 0 112 31q8 33 35 99q26 61 77 149q67 115 96 115q68 0 68 -35q0 -3 -81.5 -131.5t-81.5 -177.5q0 -22 24 -22q42 0 115 78q50 54 91 116q26 40 58 103.5t61 63.5q61 0 61 -37z" />
    <glyph glyph-name="thorn" unicode="&#xfe;" horiz-adv-x="505" 
d="M531 356q0 -74 -66 -159q-52 -66 -128 -122q24 -11 102 -17l-32 -65h-12q-77 0 -126 33q-61 -26 -109 -26q-37 0 -73 23q-35 -61 -109 -224q-11 -24 -29 -33q-21 -10 -65 -10q-23 0 -25 13q19 50 61 125q56 101 67 123q-48 -24 -85 -24l31 65q76 0 164 176
q74 163 149 326q88 176 163 176q39 0 39 -49q0 -64 -92 -174q-18 -22 -38 -43l-15 -15q-35 -64 -104 -194q147 188 241 188q42 0 66.5 -25.5t24.5 -67.5zM419 318q0 42 -35 42q-58 0 -145 -106q-57 -69 -108 -156q42 18 94 18q13 0 47 -15q53 40 96 96q51 69 51 121z" />
    <glyph glyph-name="ydieresis" unicode="&#xff;" horiz-adv-x="528" 
d="M597 571q0 -26 -21.5 -45t-47.5 -19q-44 0 -44 43q0 26 20.5 46.5t46.5 20.5q46 0 46 -46zM428 571q0 -26 -20.5 -45t-47.5 -19q-45 0 -45 44q0 26 21.5 46t46.5 20q19 0 32 -13t13 -33zM569 410q0 -5 -103 -184q-89 -154 -105 -181q26 6 100 13l-31 -65q-72 -6 -112 -17
q-109 -227 -212 -227q-43 0 -43 35q0 51 57 103q46 43 103 68q44 71 127 215q-135 -179 -238 -179q-21 0 -38 10q-20 12 -24 31q-78 -32 -148 -39l32 65q55 0 112 31q8 33 35 99q26 61 77 149q67 115 96 115q68 0 68 -35q0 -3 -81.5 -131.5t-81.5 -177.5q0 -22 24 -22
q42 0 115 78q50 54 91 116q26 40 58 103.5t61 63.5q61 0 61 -37z" />
    <glyph glyph-name="OE" unicode="&#x152;" horiz-adv-x="961" 
d="M1167 689q0 -35 -46 -48q-13 28 -46 28q-69 0 -171 -90q-105 -93 -99 -160q68 18 97 18q52 0 52 -35q0 -31 -34 -49q-28 -15 -61 -15q-28 0 -67 13q-90 -35 -157 -88q-92 -71 -92 -145q0 -46 62 -46q59 0 140 41t80 41q15 0 24.5 -12.5t9.5 -27.5q0 -16 -51 -46
q-132 -77 -247 -77q-135 0 -135 116q-116 -116 -225 -116q-71 0 -109 46q-35 42 -35 115q0 39 10 85q24 112 99 229q63 99 137 166q100 91 190 91q52 22 85 22q53 0 80 -38q23 -34 23 -89q0 -122 -84 -286q77 45 142 64q-20 28 -20 71q0 38 45 99q51 70 141 122
q96 57 176 57q32 0 56 -12q30 -16 30 -44zM595 587q0 80 -59 80q-33 0 -54.5 -25.5t-21.5 -58.5q0 -28 20.5 -43t48.5 -15q17 0 62 18q4 19 4 44zM575 460q-56 -22 -87 -22q-104 0 -104 102q0 20 5 47q-81 -81 -141 -189q-70 -125 -70 -221q0 -85 73 -85q99 0 202 139
q77 105 122 229z" />
    <glyph glyph-name="oe" unicode="&#x153;" horiz-adv-x="625" 
d="M676 367q0 -71 -73 -157q-57 -67 -134 -118q32 -34 101 -34l-31 -65h-10q-161 0 -203 107q-93 -109 -186 -109q-66 0 -93 36q-81 -34 -145 -34l32 65q34 4 46 7q22 4 43 15q-2 22 -2 32q0 105 104 221t208 116q20 0 20 -17q0 -8 -74 -71q-48 -41 -99 -122
q-56 -90 -56 -144q0 -34 34 -34q47 0 109.5 70t83.5 160q-39 5 -39 41q0 35 25.5 63.5t59.5 28.5q41 0 47 -41q74 66 144 66q88 0 88 -82zM600 339q0 30 -32 30q-57 0 -99 -71q-37 -62 -37 -124q0 -15 10 -32q49 29 99 86q59 66 59 111z" />
    <glyph glyph-name="Scaron" unicode="&#x160;" horiz-adv-x="631" 
d="M793 991l-156 -168h-101l-25 168h56l40 -95l124 95h62zM761 646q0 -80 -79 -80q1 5 1 16q0 77 -106 77q-66 0 -122 -36q-64 -41 -64 -104q0 -44 50 -81q46 -35 93 -69q50 -48 50 -117q0 -98 -79 -182q28 -9 60 -12l-32 -65q-29 2 -88 15q-121 -104 -270 -104
q-79 0 -135 24q-76 32 -76 101q0 65 44 100q40 32 106 32q47 0 297 -72q59 67 59 127q0 44 -50 83q-46 34 -92 69q-50 45 -50 103q0 120 108 200q98 73 222 73q57 0 99 -20q54 -27 54 -78zM351 27q-63 18 -127 37q-85 23 -124 23q-48 0 -48 -41q0 -36 53 -54q38 -12 86 -12
q91 0 160 47z" />
    <glyph glyph-name="scaron" unicode="&#x161;" horiz-adv-x="453" 
d="M582 701l-156 -167h-101l-25 167h56l41 -96l123 96h62zM420 463q0 -46 -65 -92q46 -71 46 -144q0 -38 -26 -86q-23 -44 -54 -72q20 -14 66 -11l-32 -65h-14q-55 0 -94 22q-61 -24 -111 -24q-76 0 -115 46q-43 -28 -119 -44l31 65q60 8 180 128q77 76 156 175
q-10 13 -10 29q0 44 37 76.5t81 32.5q43 0 43 -36zM285 241v32q0 15 -1 22q-51 -80 -169 -181q31 -14 41 -56q61 11 97 67q32 51 32 116z" />
    <glyph glyph-name="Ydieresis" unicode="&#x178;" horiz-adv-x="865" 
d="M901 910q0 -25 -21.5 -43.5t-46.5 -18.5q-42 0 -42 41q0 26 20 46t45 20q45 0 45 -45zM737 910q0 -24 -21 -43t-46 -19q-43 0 -43 43q0 25 20.5 44.5t45.5 19.5q44 0 44 -45zM1036 708q0 -2 -16 -35q-192 -396 -308 -612q25 -5 50 -5q15 0 30 2l-31 -65q-24 -2 -38 -2
q-9 0 -27 3t-25 3q-159 -238 -289 -238q-57 0 -57 42q0 58 93 124q65 46 147 81q106 158 185 340q-273 -343 -446 -343q-78 0 -78 64q0 53 134 271.5t134 260.5q0 45 -48 45q-67 0 -130 -87q-59 -81 -59 -152q0 -26 14 -35q-6 -24 -47 -24q-61 0 -61 72q0 112 98.5 214.5
t209.5 102.5q130 0 130 -111q0 -84 -106 -262l-104 -175q-28 -47 -28 -68q0 -3 2 -9q7 -5 24 -5q67 0 202 138q91 93 170 200q63 85 127 197q60 105 78 105q20 0 43 -9q27 -12 27 -28z" />
    <glyph glyph-name="florin" unicode="&#x192;" 
d="M651 651q0 -41 -19 -82q-23 -50 -59 -50q-37 0 -37 17q32 66 32 96q0 22 -17 22q-49 0 -163 -260q105 0 108.5 -2.5t3.5 -7.5q-2 -6 -4 -10q-17 -28 -22 -32q-9 -7 -37 -7h-79l-119 -247q-105 -219 -176 -296.5t-156 -77.5q-42 0 -57 24q-11 17 -11 60q0 35 20 72
q23 43 55 43q37 0 37 -18q-33 -62 -33 -100q8 -17 18 -17q22 0 58 53q31 47 68 120l60 124l129 260q-88 0 -92 3l-3 5q12 53 70 53q8 0 25 -1t26 -1q62 136 112 204q89 120 185 120q77 0 77 -67z" />
    <glyph glyph-name="circumflex" unicode="&#x2c6;" horiz-adv-x="485" 
d="M516 484h-56l-41 97l-123 -97h-62l156 168h101z" />
    <glyph glyph-name="macron" unicode="&#xaf;" horiz-adv-x="485" 
d="M557 598l-29 -71h-263l29 71h263z" />
    <glyph glyph-name="macron" unicode="&#x2c9;" horiz-adv-x="485" 
d="M557 598l-29 -71h-263l29 71h263z" />
    <glyph glyph-name="tilde" unicode="&#x2dc;" horiz-adv-x="485" 
d="M568 625q-53 -102 -122 -102q-15 0 -45 9.5t-46 9.5q-27 0 -48 -38h-52q55 104 123 104q16 0 45 -9.5t43 -9.5q30 0 51 36h51z" />
    <glyph glyph-name="mu" unicode="&#xb5;" horiz-adv-x="572" 
d="M639 517l-142 -353q-25 -62 -25 -77q0 -27 43 -18l-31 -76q-33 -8 -79 -8q-53 0 -53 45q0 8 2 22q-21 -29 -59.5 -48.5t-74.5 -19.5q-73 0 -100 52l-99 -242h-108l294 723h109l-125 -304q-19 -46 -19 -82q0 -62 70 -62q66 0 116 61q33 41 66 121l109 266h106z" />
    <glyph glyph-name="mu" unicode="&#x3bc;" horiz-adv-x="572" 
d="M639 517l-142 -353q-25 -62 -25 -77q0 -27 43 -18l-31 -76q-33 -8 -79 -8q-53 0 -53 45q0 8 2 22q-21 -29 -59.5 -48.5t-74.5 -19.5q-73 0 -100 52l-99 -242h-108l294 723h109l-125 -304q-19 -46 -19 -82q0 -62 70 -62q66 0 116 61q33 41 66 121l109 266h106z" />
    <glyph glyph-name="endash" unicode="&#x2013;" horiz-adv-x="485" 
d="M516 259l-31 -63h-485l31 63h485z" />
    <glyph glyph-name="emdash" unicode="&#x2014;" horiz-adv-x="970" 
d="M999 259l-31 -63h-969l30 63h970z" />
    <glyph glyph-name="quoteleft" unicode="&#x2018;" horiz-adv-x="256" 
d="M422 726q-21 -39 -28 -54q-15 -31 -22 -58q-3 -13 -12 -33q-18 -19 -83 -28q-18 -2 -18 14q0 26 59.5 102t82.5 76q21 0 21 -19z" />
    <glyph glyph-name="quoteright" unicode="&#x2019;" horiz-adv-x="256" 
d="M431 732q0 -28 -58.5 -103.5t-83.5 -75.5q-19 0 -22 15q0 2 17 32.5t19 35.5q10 35 26 81q6 10 39 20q29 8 45 8q18 0 18 -13z" />
    <glyph glyph-name="quotesinglbase" unicode="&#x201a;" horiz-adv-x="256" 
d="M123 123q0 -23 -60 -98t-82 -75q-21 0 -21 16q0 4 9 18q34 52 42 97q7 38 28 45q34 12 67 16q17 2 17 -19z" />
    <glyph glyph-name="quotedblleft" unicode="&#x201c;" horiz-adv-x="416" 
d="M582 726q-14 -27 -28.5 -54t-22.5 -58q-10 -37 -33 -49q-10 -4 -62 -12q-13 -2 -17 13q4 30 60 104.5t81 74.5q22 0 22 -19zM422 726q-37 -65 -50 -112q-3 -13 -12 -33q-18 -19 -83 -28q-18 -2 -18 14q0 26 59.5 102t82.5 76q21 0 21 -19z" />
    <glyph glyph-name="quotedblright" unicode="&#x201d;" horiz-adv-x="416" 
d="M591 731q0 -26 -59.5 -102t-82.5 -76q-22 0 -22 13q0 7 9 20q30 43 43 101q2 11 10 30q8 12 52 22q26 6 33 6q17 0 17 -14zM431 732q0 -28 -58.5 -103.5t-83.5 -75.5q-19 0 -22 15q0 2 17 32.5t19 35.5q10 35 26 81q6 10 39 20q29 8 45 8q18 0 18 -13z" />
    <glyph glyph-name="quotedblbase" unicode="&#x201e;" horiz-adv-x="416" 
d="M282 123q0 -24 -60 -98.5t-82 -74.5q-21 0 -21 15q0 6 9 19q31 46 43 99q2 11 10 31q13 18 84 28q17 2 17 -19zM124 123q0 -23 -60.5 -98t-82.5 -75q-21 0 -21 16q0 4 9 18q34 52 42 97q7 38 28 45q34 12 67 16q18 2 18 -19z" />
    <glyph glyph-name="dagger" unicode="&#x2020;" horiz-adv-x="413" 
d="M577 553q0 -21 -15 -39t-35 -18h-121l-268 -540q-11 -23 -53 -23q-25 0 -31 4q-6 1 -6 13t267 546q-130 0 -133 3q0 26 11 46q14 25 38 25h123l76 155q11 23 54 23q22 0 25 -1q12 -3 12 -18l-3 -7v-4l-74 -148q127 0 130 -3t3 -14z" />
    <glyph glyph-name="daggerdbl" unicode="&#x2021;" horiz-adv-x="413" 
d="M577 553q0 -21 -15 -39t-35 -18h-121l-90 -185q-4 0 40 1q37 1 58 0q31 -1 33.5 -5t2.5 -7q0 -23 -13 -42q-16 -22 -38 -22h-121l-140 -280q-11 -23 -53 -23q-25 0 -31 4q-6 1 -6 13q0 8 65 137q37 75 75 149q2 0 -41 -1q-37 -1 -58 0q-31 1 -35 5l-1 3q1 24 14.5 46
t36.5 22h123l88 185q-130 0 -133 3q0 26 11 46q14 25 38 25h123l76 155q11 23 54 23q22 0 25 -1q12 -3 12 -18l-3 -7v-4l-74 -148q127 0 130 -3t3 -14z" />
    <glyph glyph-name="bullet" unicode="&#x2022;" horiz-adv-x="572" 
d="M507 394q0 -66 -54 -118.5t-121 -52.5q-112 0 -112 128q0 -6 5 14q16 61 61.5 101t107.5 40q49 0 81 -31.5t32 -80.5z" />
    <glyph glyph-name="ellipsis" unicode="&#x2026;" horiz-adv-x="970" 
d="M859 89q0 -35 -26.5 -61.5t-61.5 -26.5q-49 0 -49 46q0 37 26.5 63t63.5 26q47 0 47 -47zM551 84q0 -34 -26.5 -61t-61.5 -27q-50 0 -50 46q0 38 27 63.5t64 25.5q47 0 47 -47zM235 89q0 -35 -26.5 -61.5t-61.5 -26.5q-50 0 -50 46q0 37 27 63t64 26q47 0 47 -47z" />
    <glyph glyph-name="perthousand" unicode="&#x2030;" horiz-adv-x="1293" 
d="M1300 365q0 -115 -78 -238q-88 -136 -196 -136q-96 0 -96 104q0 86 69 180q61 83 143 134q46 28 68 28q40 0 40 -27v-2q-1 -1 -1 -2q-30 -21 -88 -66q-53 -48 -96 -116q-51 -82 -51 -139q0 -37 30 -37q50 0 100 88q39 70 52 135q2 20 7 60q4 24 28 39q21 13 46 13
q23 0 23 -18zM915 365q0 -115 -79 -238q-88 -136 -196 -136q-96 0 -96 103q0 75 44 146q34 56 105 121q83 76 131 76q38 0 38 -31q-13 -14 -42 -34q-34 -22 -45 -32q-55 -49 -97 -116q-50 -80 -50 -141q0 -35 30 -35q48 0 96 81q40 66 51 125q5 26 12 77q3 22 27 37t47 15
q24 0 24 -18zM892 680q0 -10 -91 -99q-56 -54 -113 -109q-162 -166 -296 -318q-54 -65 -147 -164q-1 0 -1 -1h-2q-11 0 -27 18t-16 30q0 33 542 575q-95 -31 -161 -31q-53 0 -87 11q-2 -10 -6 -31q-36 -138 -105 -218q-78 -90 -161 -90q-96 0 -96 106q0 87 68 179
q60 80 144 133q46 29 69 29q37 0 37 -32q-30 -22 -89 -68q-52 -45 -95 -116q-49 -81 -49 -139q0 -34 29 -34q50 0 100 83q42 71 50 131q2 18 9 66q3 22 32.5 46.5t52.5 24.5q-2 0 5 -1q6 -4 8 -6q33 -27 92 -27q48 0 110.5 15.5t102.5 39.5q19 12 57 33q11 0 22.5 -12.5
t11.5 -23.5z" />
    <glyph glyph-name="guilsinglleft" unicode="&#x2039;" horiz-adv-x="254" 
d="M288 365q-6 -13 -12 -19l-155 -138q18 -43 42 -125q-2 -16 -20 -31.5t-35 -15.5q-13 0 -18 12q-18 54 -50 160q-1 12 13 25l174 159q12 11 23 12q14 0 26 -12.5t12 -26.5z" />
    <glyph glyph-name="guilsinglright" unicode="&#x203a;" horiz-adv-x="254" 
d="M228 224l-4 -9q-61 -56 -184 -167q-13 -12 -23 -12q-11 0 -23.5 12t-14.5 24q1 4 5 11q5 11 76 73q43 38 86 75l-21 64q-20 59 -20 62q0 16 19 31.5t36 15.5q13 0 17 -12q20 -55 51 -168z" />
    <glyph glyph-name="trademark" unicode="&#x2122;" horiz-adv-x="808" 
d="M823 699l-56 -260h-54l44 205l-120 -205h-28l-34 205l-44 -205h-55l56 260h81l29 -173l100 173h81zM477 699l-10 -45h-80l-46 -215h-61l46 215h-81l10 45h222z" />
    <glyph glyph-name="minus" unicode="&#xad;" horiz-adv-x="290" 
d="M272 255q0 -17 -15 -42q-17 -29 -36 -29h-150q-20 0 -20 14q0 16 16.5 44.5t33.5 28.5h151q20 0 20 -16z" />
    <glyph glyph-name="minus" unicode="&#x2212;" horiz-adv-x="290" 
d="M272 255q0 -17 -15 -42q-17 -29 -36 -29h-150q-20 0 -20 14q0 16 16.5 44.5t33.5 28.5h151q20 0 20 -16z" />
    <glyph glyph-name="periodcentered" unicode="&#xb7;" horiz-adv-x="256" 
d="M259 367q0 -29 -25.5 -53.5t-54.5 -24.5q-21 0 -36.5 15t-15.5 36q0 30 25 54t55 24q22 0 37 -14.5t15 -36.5z" />
    <glyph glyph-name="periodcentered" unicode="&#x2219;" horiz-adv-x="256" 
d="M259 367q0 -29 -25.5 -53.5t-54.5 -24.5q-21 0 -36.5 15t-15.5 36q0 30 25 54t55 24q22 0 37 -14.5t15 -36.5z" />
    <glyph glyph-name="BS" horiz-adv-x="0" 
 />
    <glyph glyph-name="GS" horiz-adv-x="0" 
 />
    <glyph glyph-name="dotoperator" horiz-adv-x="256" 
d="M259 367q0 -29 -25.5 -53.5t-54.5 -24.5q-21 0 -36.5 15t-15.5 36q0 30 25 54t55 24q22 0 37 -14.5t15 -36.5z" />
    <glyph glyph-name="nonmarkingreturn" horiz-adv-x="256" 
 />
    <glyph glyph-name="HT" horiz-adv-x="256" 
 />
    <glyph glyph-name=".null" horiz-adv-x="0" 
 />
    <glyph glyph-name="nonbreakingspace" unicode="&#xa0;" 
 />
    <glyph glyph-name="uni0080" horiz-adv-x="904" 
d="M505 893q262 20 398 -126l-29 -78q-146 156 -369 127q-185 -59 -272 -243l583 -10l-20 -58l-19 -20h-563v-77h543l-48 -78h-476q49 -155 262 -252q223 -39 379 126l-10 -117q-68 -58 -184 -87h-185q-116 29 -194 97q-117 97 -155 233h-127l30 78h87v77h-126l29 78h107
q116 282 359 330z" />
    <glyph glyph-name="uni0080" unicode="&#x20ac;" horiz-adv-x="904" 
d="M505 893q262 20 398 -126l-29 -78q-146 156 -369 127q-185 -59 -272 -243l583 -10l-20 -58l-19 -20h-563v-77h543l-48 -78h-476q49 -155 262 -252q223 -39 379 126l-10 -117q-68 -58 -184 -87h-185q-116 29 -194 97q-117 97 -155 233h-127l30 78h87v77h-126l29 78h107
q116 282 359 330z" />
  </font>
</defs>
</svg>
